<ttFont>
          <CharString index="0">
            -90 -55 -46 -80 -70 -47 39 56 -15 vhcurveto
            132 callsubr
            152 hlineto
            return
          </CharString>
          <CharString index="1">
            -102 callgsubr
            -111 77 -79 116 47 36 17 25 27 hvcurveto
            return
          </CharString>
          <CharString index="2">
            373 callsubr
            -63 -44 -32 352 callsubr
            120 82 68 109 55 -21 45 -43 27 hvcurveto
            return
          </CharString>
          <CharString index="3">
            rmoveto
            -107 callsubr
            return
          </CharString>
          <CharString index="4">
            352 -104 callsubr
            return
          </CharString>
          <CharString index="5">
            -31 -13 -22 -37 -29 -25 13 0 vhcurveto
            -95 vlineto
            -10 28 24 -4 31 hhcurveto
            80 58 44 95 hvcurveto
            221 return
          </CharString>
          <CharString index="6">
            -60 callgsubr
            62 46 39 58 -29 callgsubr
            -64 callsubr
            return
          </CharString>
          <CharString index="7">
            rmoveto
            -213 hlineto
            83 12 49 40 54 hhcurveto
            65 30 -46 -62 3 hvcurveto
            82 -178 rmoveto
            -24 -33 -47 -16 -55 hhcurveto
            -81 -59 39 74 -18 hvcurveto
            318 hlineto
            3 19 4 34 19 vvcurveto
            158 -87 77 -128 -127 -104 -92 -167 -149 96 -109 165 49 67 10 23 37 vhcurveto
            endchar
          </CharString>
          <CharString index="8">
            -85 -96 -133 -136 80 -100 141 -90 callgsubr
            return
          </CharString>
          <CharString index="9">
            -88 callgsubr
            565 106 return
          </CharString>
          <CharString index="10">
            20 hhcurveto
            22 27 -3 -8 23 hvcurveto
            102 vlineto
            6 -23 -31 3 -27 hhcurveto
            return
          </CharString>
          <CharString index="11">
            60 39 42 61 6 6 0 -1 6 vhcurveto
            return
          </CharString>
          <CharString index="12">
            23 66 49 94 vvcurveto
            37 -10 32 return
          </CharString>
          <CharString index="13">
            rmoveto
            9 29 rlineto
            77 245 9 50 0 vvcurveto
            0 10 -50 76 -244 vhcurveto
            9 -30 rlineto
            80 -256 rmoveto
            136 hlineto
            -228 674 rlineto
            -163 hlineto
            -228 -674 rlineto
            132 hlineto
            48 153 rlineto
            255 hlineto
            endchar
          </CharString>
          <CharString index="14">
            118 -97 callgsubr
          </CharString>
          <CharString index="15">
            rmoveto
            -48 vlineto
            -50 -31 -35 -54 -50 -24 25 39 38 31 31 66 vhcurveto
            -184 152 rmoveto
            25 38 56 20 55 hhcurveto
            74 23 -33 -53 hvcurveto
            -31 -74 vlineto
            -138 -72 -59 -95 -83 58 -65 99 78 38 35 30 16 hvcurveto
            return
          </CharString>
          <CharString index="16">
            -42 callsubr
            -58 callgsubr
            return
          </CharString>
          <CharString index="17">
            rmoveto
            -68 -239 rlineto
            -46 -162 -32 -126 0 vvcurveto
            0 -27 137 -37 151 vhcurveto
            -63 249 rlineto
            -133 hlineto
            180 -674 rlineto
            145 hlineto
            63 213 rlineto
            56 190 14 70 0 vvcurveto
            0 15 -69 56 -191 vhcurveto
            61 -213 rlineto
            146 hlineto
            172 674 rlineto
            -128 hlineto
            -61 -248 rlineto
            -37 -152 -25 -139 0 vvcurveto
            0 -38 143 -42 147 vhcurveto
            -69 239 rlineto
            return
          </CharString>
          <CharString index="18">
            rmoveto
            -208 125 -138 194 194 124 139 207 209 -122 138 -197 -194 -124 -139 -208 vhcurveto
            135 hmoveto
            142 70 89 113 115 69 -89 -142 -142 -69 -88 -114 -112 -72 88 142 vhcurveto
            return
          </CharString>
          <CharString index="19">
            130 hlineto
            45 166 rlineto
            39 147 13 66 0 vvcurveto
            0 11 -66 41 -147 vhcurveto
            45 -166 rlineto
            130 hlineto
            161 507 rlineto
            -120 hlineto
            -48 -167 rlineto
            -49 -167 -10 -59 0 vvcurveto
            0 -9 59 -49 167 vhcurveto
            -49 167 rlineto
            -109 hlineto
            -49 -167 rlineto
            -48 -164 -10 -61 0 vvcurveto
            0 -9 62 -45 163 vhcurveto
            -46 167 rlineto
            -125 hlineto
            return
          </CharString>
          <CharString index="20">
            -95 106 -82 callsubr
            return
          </CharString>
          <CharString index="21">
            -95 120 -205 hlineto
            -28 -7 -16 -22 -31 -52 callgsubr
            125 return
          </CharString>
          <CharString index="22">
            rmoveto
            -61 -49 47 99 91 42 59 70 60 53 -42 -115 -85 -51 -54 -64 hvcurveto
            115 393 rmoveto
            -73 vlineto
            48 -28 -45 31 -68 hhcurveto
            -127 -82 -109 -144 -168 102 -76 104 66 48 26 49 30 hvcurveto
            -44 vlineto
            -92 -47 -40 -91 -59 -60 17 31 -44 vhcurveto
            -122 vlineto
            -26 54 63 -10 58 hhcurveto
            132 114 72 169 hvcurveto
            461 vlineto
            endchar
          </CharString>
          <CharString index="23">
            565 106 return
          </CharString>
          <CharString index="24">
            rmoveto
            159 86 115 148 144 -83 116 -162 -150 -94 -116 -151 -143 85 -113 159 hvcurveto
            425 vmoveto
            88 32 -77 -89 -89 -37 -74 -82 -79 -40 76 88 89 38 76 80 hvcurveto
            return
          </CharString>
          <CharString index="25">
            -79 callsubr
            95 return
          </CharString>
          <CharString index="26">
            rmoveto
            -145 -169 rlineto
            117 hlineto
            81 99 81 -99 rlineto
            117 hlineto
            -145 169 rlineto
            return
          </CharString>
          <CharString index="27">
            rmoveto
            31 -52 -66 6 -55 hhcurveto
            -202 -143 -141 -205 -211 149 -134 196 53 70 7 33 51 hvcurveto
            126 vlineto
            -32 -43 -62 -18 -57 hhcurveto
            -131 -91 87 142 143 96 87 119 68 43 -11 -33 57 hvcurveto
            return
          </CharString>
          <CharString index="28">
            -565 -71 callsubr
            return
          </CharString>
          <CharString index="29">
            4 14 32 5 22 hhcurveto
            56 34 -22 -41 34 hvcurveto
            92 -112 -10 9 rlineto
            96 -110 -41 19 -66 hhcurveto
            -20 -25 -5 -3 -12 hvcurveto
            -89 vlineto
            3 10 27 5 20 hhcurveto
            return
          </CharString>
          <CharString index="30">
            -37 callsubr
            27 hvcurveto
            return
          </CharString>
          <CharString index="31">
            319 callsubr
            -32 -9 -10 -19 vhcurveto
            -92 vlineto
            7 13 21 7 21 56 callgsubr
            -106 159 callsubr
            -23 90 callsubr
            return
          </CharString>
          <CharString index="32">
            -57 callgsubr
            158 100 -8 callgsubr
            return
          </CharString>
          <CharString index="33">
            vlineto
            -93 callgsubr
            return
          </CharString>
          <CharString index="34">
            40 30 30 40 39 -30 30 -40 -41 -30 -30 -39 return
          </CharString>
          <CharString index="35">
            1 callgsubr
            hvcurveto
            -69 callsubr
          </CharString>
          <CharString index="36">
            117 -84 callsubr
            return
          </CharString>
          <CharString index="37">
            -82 callgsubr
            -51 -49 return
          </CharString>
          <CharString index="38">
            -144 -93 callsubr
          </CharString>
          <CharString index="39">
            -143 71 -57 114 53 41 18 29 29 vhcurveto
            186 callsubr
            301 vlineto
            62 return
          </CharString>
          <CharString index="40">
            -57 -14 -23 -55 vhcurveto
            -67 -93 hlineto
            -156 57 122 -111 177 hhcurveto
            return
          </CharString>
          <CharString index="41">
            73 -45 -59 39 -83 hhcurveto
            -33 -32 -5 -3 -10 hvcurveto
            -91 vlineto
            -78 callsubr
            return
          </CharString>
          <CharString index="42">
            87 -129 -54 callsubr
            -125 161 rlineto
            77 25 44 56 70 vvcurveto
            81 -61 52 -93 -35 -37 -9 -13 -27 vhcurveto
            -86 vlineto
            109 callsubr
            return
          </CharString>
          <CharString index="43">
            102 vlineto
            5 -19 -25 3 -24 hhcurveto
            return
          </CharString>
          <CharString index="44">
            -211 hlineto
            -102 callsubr
            return
          </CharString>
          <CharString index="45">
            rmoveto
            41 29 -30 -35 -49 -27 -25 -35 -17 hvcurveto
            -51 13 -28 27 47 vvcurveto
            40 28 29 43 vhcurveto
            return
          </CharString>
          <CharString index="46">
            -287 hlineto
            -46 callsubr
            return
          </CharString>
          <CharString index="47">
            -40 callsubr
            50 61 34 -45 -53 -60 -39 -42 -61 -6 -6 0 1 -6 vhcurveto
            -95 vlineto
            -1 7 8 0 8 hhcurveto
            120 93 75 124 111 -77 79 -116 178 callgsubr
          </CharString>
          <CharString index="48">
            118 -19 callsubr
            return
          </CharString>
          <CharString index="49">
            -156 102 -108 163 return
          </CharString>
          <CharString index="50">
            hhcurveto
            -103 -70 -27 callsubr
            hvcurveto
            -15 callsubr
            return
          </CharString>
          <CharString index="51">
            117 -97 callgsubr
          </CharString>
          <CharString index="52">
            -43 -29 38 -63 hhcurveto
            -50 -41 -37 -41 -20 hvcurveto
            57 -53 rlineto
            31 23 15 13 34 hhcurveto
            return
          </CharString>
          <CharString index="53">
            rlineto
            141 hlineto
            return
          </CharString>
          <CharString index="54">
            rmoveto
            -37 30 -30 37 38 30 30 37 38 -30 30 -38 -37 -30 -30 -38 vhcurveto
            return
          </CharString>
          <CharString index="55">
            319 callsubr
            -33 -9 -10 -18 vhcurveto
            -92 vlineto
            7 13 21 7 21 56 callgsubr
            -153 159 callsubr
            -24 90 callsubr
            return
          </CharString>
          <CharString index="56">
            vvcurveto
            -66 callgsubr
            return
          </CharString>
          <CharString index="57">
            -72 -47 -39 -57 -56 -30 29 75 vhcurveto
            return
          </CharString>
          <CharString index="58">
            hstemhm
            42 116 122 callsubr
            return
          </CharString>
          <CharString index="59">
            86 -22 -73 52 -110 hhcurveto
            -35 -39 -7 -8 -20 hvcurveto
            -99 vlineto
            9 22 33 8 31 hhcurveto
            64 39 -42 -61 -65 -38 -47 -78 -61 -49 20 22 -37 hvcurveto
            -107 vlineto
            -18 35 48 -18 73 hhcurveto
            return
          </CharString>
          <CharString index="60">
            -41 callgsubr
            95 vlineto
            1 -8 -7 0 -8 hhcurveto
            return
          </CharString>
          <CharString index="61">
            -34 callsubr
            -34 45 53 return
          </CharString>
          <CharString index="62">
            565 101 callgsubr
          </CharString>
          <CharString index="63">
            33 callsubr
            146 callgsubr
            return
          </CharString>
          <CharString index="64">
            -4 -9 -9 -2 -9 hhcurveto
            -30 -24 20 34 34 return
          </CharString>
          <CharString index="65">
            -43 callgsubr
            13 12 1 1 11 return
          </CharString>
          <CharString index="66">
            -24 11 -28 17 -39 -8 callsubr
            return
          </CharString>
          <CharString index="67">
            174 callsubr
            40 40 return
          </CharString>
          <CharString index="68">
            rmoveto
            -120 -507 120 272 hlineto
            95 53 46 58 53 36 -33 -68 vhcurveto
            -312 120 337 vlineto
            113 -64 63 -100 -74 -55 -34 -59 -27 vhcurveto
            endchar
          </CharString>
          <CharString index="69">
            rmoveto
            41 30 30 40 39 -30 30 -41 -40 -31 -30 -39 -40 31 -30 40 hvcurveto
            7 callsubr
            return
          </CharString>
          <CharString index="70">
            69 57 26 40 return
          </CharString>
          <CharString index="71">
            rmoveto
            183 241 102 -241 183 271 103 -398 -674 402 103 vlineto
            endchar
          </CharString>
          <CharString index="72">
            92 -73 59 -111 -112 -68 -77 -85 -59 25 -44 39 -31 vhcurveto
            return
          </CharString>
          <CharString index="73">
            -58 -40 -40 -50 -61 return
          </CharString>
          <CharString index="74">
            82 25 -34 -44 -70 -51 -22 -50 -42 -39 10 23 -45 hvcurveto
            -109 vlineto
            -15 39 47 -8 45 hhcurveto
            141 68 76 99 hvcurveto
            return
          </CharString>
          <CharString index="75">
            -69 118 67 vlineto
            return
          </CharString>
          <CharString index="76">
            9 -27 18 -38 vhcurveto
            32 -69 rlineto
            102 return
          </CharString>
          <CharString index="77">
            -117 74 -56 111 112 73 56 117 vhcurveto
            return
          </CharString>
          <CharString index="78">
            16 18 1 2 17 return
          </CharString>
          <CharString index="79">
            hhcurveto
            -74 -18 callsubr
            return
          </CharString>
          <CharString index="80">
            -67 -86 -82 62 -55 77 16 19 3 6 16 return
          </CharString>
          <CharString index="81">
            hstemhm
            35 -59 callsubr
            return
          </CharString>
          <CharString index="82">
            rcurveline
            -104 callgsubr
            return
          </CharString>
          <CharString index="83">
            -21 565 95 return
          </CharString>
          <CharString index="84">
            rmoveto
            -17 callsubr
            return
          </CharString>
          <CharString index="85">
            11 17 34 11 26 hhcurveto
            39 24 -20 -29 -46 -46 -24 -56 return
          </CharString>
          <CharString index="86">
            3 -12 -13 2 -13 76 callsubr
            return
          </CharString>
          <CharString index="87">
            363 rmoveto
            -177 202 177 hlineto
            return
          </CharString>
          <CharString index="88">
            185 118 return
          </CharString>
          <CharString index="89">
            -56 -30 -67 -18 hvcurveto
            return
          </CharString>
          <CharString index="90">
            -1 callsubr
            122 callgsubr
            hvcurveto
            return
          </CharString>
          <CharString index="91">
            rmoveto
            -120 hlineto
            -1 -507 rlineto
            121 262 hlineto
            79 44 61 67 17 16 -2 -8 18 vhcurveto
            116 vlineto
            3 -13 -10 0 -11 hhcurveto
            -64 -43 -38 -56 -21 hvcurveto
            endchar
          </CharString>
          <CharString index="92">
            82 vlineto
            -43 callsubr
            return
          </CharString>
          <CharString index="93">
            -33 33 46 36 16 30 32 23 hvcurveto
            188 hlineto
            return
          </CharString>
          <CharString index="94">
            -83 callgsubr
            endchar
          </CharString>
          <CharString index="95">
            -39 -34 9 17 -32 return
          </CharString>
          <CharString index="96">
            391 rmoveto
            -50 callsubr
            344 callgsubr
            return
          </CharString>
          <CharString index="97">
            -75 callgsubr
            18 callsubr
            hvcurveto
            endchar
          </CharString>
          <CharString index="98">
            -64 callgsubr
            139 callsubr
            return
          </CharString>
          <CharString index="99">
            vhcurveto
            117 callsubr
            return
          </CharString>
          <CharString index="100">
            -63 -43 -29 -65 -68 vvcurveto
            -176 167 -88 168 27 22 1 6 29 vhcurveto
            89 vlineto
            -5 -21 -26 -1 -24 hhcurveto
            -145 -80 81 88 80 62 62 119 30 27 -4 -9 22 hvcurveto
            -107 -49 rlineto
            -39 -18 -18 -24 -30 vvcurveto
            -48 52 -53 26 -19 vhcurveto
            74 35 rlineto
            -25 32 -15 28 15 vvcurveto
            13 8 7 12 5 vhcurveto
            103 48 rlineto
            9 -16 4 -18 -20 vvcurveto
            -26 -4 -25 -6 -17 vhcurveto
            107 hlineto
            6 19 4 32 27 vvcurveto
            118 -91 92 -171 vhcurveto
            return
          </CharString>
          <CharString index="101">
            hhcurveto
            -69 -67 31 63 -21 hvcurveto
            128 callsubr
            -63 -61 -37 -123 -34 vhcurveto
            22 -33 -40 17 -83 hhcurveto
            -111 hlineto
            -105 callgsubr
            77 hlineto
            32 30 -8 -16 17 hvcurveto
            -140 38 114 -60 129 hhcurveto
            return
          </CharString>
          <CharString index="102">
            rlineto
            -104 callgsubr
            return
          </CharString>
          <CharString index="103">
            rmoveto
            82 hlineto
            76 42 -39 -69 -68 -36 -44 -80 hvcurveto
            -84 hlineto
            222 -350 rmoveto
            151 hlineto
            -173 266 76 31 51 65 1 99 rlinecurve
            127 -91 86 -155 vhcurveto
            -208 453 callsubr
            246 69 hlineto
            endchar
          </CharString>
          <CharString index="104">
            -129 98 -71 110 1 callgsubr
            return
          </CharString>
          <CharString index="105">
            303 37 callgsubr
            -69 -38 -34 -62 -6 -6 0 1 -5 vhcurveto
            -95 vlineto
            -2 7 9 0 8 hhcurveto
            114 96 66 134 104 -67 85 -116 -49 -40 -16 -27 -29 hvcurveto
            112 vlineto
            endchar
          </CharString>
          <CharString index="106">
            -43 callsubr
            25 29 42 64 32 -47 -65 return
          </CharString>
          <CharString index="107">
            -59 callgsubr
            123 return
          </CharString>
          <CharString index="108">
            hhcurveto
            -59 callgsubr
            return
          </CharString>
          <CharString index="109">
            103 callsubr
            140 hlineto
            return
          </CharString>
          <CharString index="110">
            344 callgsubr
            481 hmoveto
            95 -884 -95 95 -177 vlineto
            -15 callgsubr
            -2 callsubr
          </CharString>
          <CharString index="111">
            204 -265 301 callsubr
            -209 267 11 1 rlineto
            89 14 55 59 93 vvcurveto
            131 295 return
          </CharString>
          <CharString index="112">
            -107 callsubr
            -462 95 rmoveto
            104 callsubr
            return
          </CharString>
          <CharString index="113">
            rmoveto
            25 -6 30 -12 18 vhcurveto
            -97 hlineto
            12 -18 13 -21 -27 vvcurveto
            -40 -27 -25 -52 -2 vhcurveto
            -78 vlineto
            116 1 53 63 74 vvcurveto
            endchar
          </CharString>
          <CharString index="114">
            -242 hmoveto
            -73 callsubr
            -40 30 -30 41 hvcurveto
            return
          </CharString>
          <CharString index="115">
            173 callsubr
            4 callgsubr
            return
          </CharString>
          <CharString index="116">
            124 -159 hlineto
            -11 -30 -34 -7 -37 hhcurveto
            -141 -86 88 142 140 90 91 135 hvcurveto
            return
          </CharString>
          <CharString index="117">
            16 callgsubr
            endchar
          </CharString>
          <CharString index="118">
            -46 -31 rlineto
            -40 -28 -17 -26 -31 vvcurveto
            -52 47 -47 48 -26 vhcurveto
            68 42 rlineto
            -19 20 -21 24 25 vvcurveto
            14 6 15 13 11 vhcurveto
            return
          </CharString>
          <CharString index="119">
            -160 -3 -94 -98 -122 235 callgsubr
            18 callsubr
            hvcurveto
            return
          </CharString>
          <CharString index="120">
            14 callsubr
            156 callsubr
            vhcurveto
            return
          </CharString>
          <CharString index="121">
            hhcurveto
            53 41 18 29 29 hvcurveto
            186 callsubr
            return
          </CharString>
          <CharString index="122">
            168 0 105 177 103 183 106 hstem
            137 129 306 128 vstem
            266 105 rmoveto
            177 152 103 -152 183 87 vlineto
            138 81 -96 -126 -142 -72 -99 -145 hvcurveto
            -218 569 rmoveto
            -289 -73 -103 73 -282 220 vlineto
            213 130 141 205 187 -140 141 -203 hvcurveto
            endchar
          </CharString>
          <CharString index="123">
            rmoveto
            -12 30 22 -4 24 hhcurveto
            103 55 65 98 hvcurveto
            541 -120 -539 vlineto
            -50 -22 -19 -31 -19 -21 6 9 -21 vhcurveto
            return
          </CharString>
          <CharString index="124">
            80 -369 -28 callgsubr
          </CharString>
          <CharString index="125">
            84 68 49 114 18 49 -2 -4 18 return
          </CharString>
          <CharString index="126">
            208 callsubr
            -110 -41 41 52 44 40 37 79 54 28 -26 -29 -12 -1 -22 -11 -17 hvcurveto
            63 callsubr
            return
          </CharString>
          <CharString index="127">
            -65 57 rcurveline
            -11 callgsubr
            hvcurveto
            return
          </CharString>
          <CharString index="128">
            372 callgsubr
            126 vlineto
            -38 -22 -27 -37 -57 vvcurveto
            -100 81 -60 124 return
          </CharString>
          <CharString index="129">
            223 callsubr
            -342 -95 303 36 callsubr
            18 3 7 hlineto
            33 13 -19 -35 hvcurveto
            -99 -253 vlineto
            -105 callgsubr
            162 97 callsubr
            return
          </CharString>
          <CharString index="130">
            424 220 38 callgsubr
          </CharString>
          <CharString index="131">
            vvcurveto
            32 callgsubr
            return
          </CharString>
          <CharString index="132">
            -95 93 -191 hlineto
            -143 86 -63 120 return
          </CharString>
          <CharString index="133">
            hlineto
            -82 callgsubr
            return
          </CharString>
          <CharString index="134">
            28 hlineto
            -36 -35 -19 -48 -60 vvcurveto
            -141 94 -84 218 callgsubr
            -5 -8 -1 -6 hhcurveto
            -75 -44 51 77 89 53 50 110 hvcurveto
            return
          </CharString>
          <CharString index="135">
            79 callsubr
            69 -1 50 -31 34 -45 -293 -178 rcurveline
            318 callsubr
            return
          </CharString>
          <CharString index="136">
            -255 rmoveto
            90 hlineto
            115 204 rlineto
            -129 hlineto
            return
          </CharString>
          <CharString index="137">
            55 callgsubr
            40 callsubr
            return
          </CharString>
          <CharString index="138">
            rmoveto
            91 hlineto
            132 169 rlineto
            -126 hlineto
            -272 -169 rmoveto
            90 hlineto
            117 169 345 callgsubr
            return
          </CharString>
          <CharString index="139">
            118 237 118 return
          </CharString>
          <CharString index="140">
            120 130 71 159 return
          </CharString>
          <CharString index="141">
            394 -78 -84 hlineto
            150 callsubr
            -100 59 -78 96 -24 hvcurveto
            -133 -129 rlineto
            152 hlineto
            return
          </CharString>
          <CharString index="142">
            rmoveto
            -143 172 rlineto
            169 callsubr
            return
          </CharString>
          <CharString index="143">
            -11 hlineto
            8 4 10 4 12 3 rrcurveto
            return
          </CharString>
          <CharString index="144">
            330 485 rmoveto
            5 -18 -26 3 -24 hhcurveto
            -128 -85 -89 -116 -112 76 -68 89 -12 hvcurveto
            -161 -161 rlineto
            157 hlineto
            303 303 -62 73 rlineto
            -79 -47 -51 -50 -74 hhcurveto
            -69 -42 313 callsubr
            hvcurveto
            66 182 rmoveto
            95 -423 -95 vlineto
            return
          </CharString>
          <CharString index="145">
            72 callsubr
            86 94 return
          </CharString>
          <CharString index="146">
            224 callgsubr
            188 136 95 -615 -95 362 -86 -23 vlineto
            94 callsubr
            -135 107 -99 153 vhcurveto
            return
          </CharString>
          <CharString index="147">
            -308 115 rmoveto
            226 callsubr
            -45 callgsubr
            return
          </CharString>
          <CharString index="148">
            -67 -4 89 -85 85 133 80 117 101 return
          </CharString>
          <CharString index="149">
            84 callsubr
            hintmask 1010011111100000
            35 30 13 33 vhcurveto
            196 callsubr
          </CharString>
          <CharString index="150">
            120 272 hlineto
            112 67 29 45 51 37 -36 -66 vhcurveto
            -311 120 332 vlineto
            122 -70 59 -95 -78 -51 -34 -58 -26 vhcurveto
            endchar
          </CharString>
          <CharString index="151">
            rmoveto
            -469 -103 317 hlineto
            -322 -475 rlineto
            -96 487 103 -336 vlineto
            323 478 rlineto
            return
          </CharString>
          <CharString index="152">
            410 callsubr
            -91 -169 rlineto
            101 hlineto
            return
          </CharString>
          <CharString index="153">
            -104 160 389 callgsubr
            -99 vlineto
            183 callsubr
            21 hvcurveto
            73 -108 rlineto
            return
          </CharString>
          <CharString index="154">
            110 callsubr
            17 callsubr
          </CharString>
          <CharString index="155">
            519 rmoveto
            189 -175 rlineto
            -78 hlineto
            -64 -47 26 72 hvcurveto
            30 123 rmoveto
            174 -54 hlineto
            -42 5 -42 7 -39 vhcurveto
            52 -139 rmoveto
            7 vlineto
            54 2 rlineto
            307 98 95 -625 -95 87 -121 vlineto
            -74 31 -57 62 -16 vhcurveto
            hintmask 11110100
            -63 -23 -37 -55 -68 vvcurveto
            return
          </CharString>
          <CharString index="156">
            322 callsubr
            314 95 -641 -95 210 -93 vlineto
            -57 -11 -20 -55 vhcurveto
            -67 -93 hlineto
            53 -143 96 -95 154 -17 -196 -156 rcurveline
            175 hlineto
            264 211 rlineto
            72 58 52 64 90 vvcurveto
            return
          </CharString>
          <CharString index="157">
            -68 -33 -35 -53 -47 18 -49 216 callgsubr
            34 10 9 24 vhcurveto
            return
          </CharString>
          <CharString index="158">
            58 55 43 137 172 54 -48 -77 vhcurveto
            -30 -106 -87 callsubr
            return
          </CharString>
          <CharString index="159">
            hlineto
            -34 -18 -17 -32 -40 vvcurveto
            -70 52 -38 83 -4 vhcurveto
            return
          </CharString>
          <CharString index="160">
            173 -173 279 -258 -21 return
          </CharString>
          <CharString index="161">
            142 138 callsubr
            return
          </CharString>
          <CharString index="162">
            204 callgsubr
            115 return
          </CharString>
          <CharString index="163">
            rlineto
            19 -27 -24 11 -30 hhcurveto
            -64 -39 -77 -69 -11 hvcurveto
            62 -47 rlineto
            33 16 28 34 32 hhcurveto
            11 12 -4 -9 11 hvcurveto
            111 -73 -201 -40 rlineto
            -57 -12 -25 -31 -41 vvcurveto
            -51 38 -59 21 -23 vhcurveto
            76 18 rlineto
            -6 19 -8 23 21 vvcurveto
            28 9 20 32 8 vhcurveto
            return
          </CharString>
          <CharString index="164">
            vstem
            346 -25 callgsubr
            -373 -95 373 hlineto
            114 -182 rmoveto
            76 -347 245 callgsubr
            201 hlineto
            -339 -320 rlineto
            146 hlineto
            314 303 rlineto
            return
          </CharString>
          <CharString index="165">
            -59 -23 15 61 hvcurveto
            -118 hlineto
            -154 104 -17 83 vhcurveto
            38 hlineto
            48 13 -24 -49 2 hvcurveto
            return
          </CharString>
          <CharString index="166">
            rmoveto
            -13 25 43 -8 35 hhcurveto
            109 71 63 130 hvcurveto
            481 -126 -481 vlineto
            -57 -28 -25 -49 -30 -28 10 14 -22 vhcurveto
            return
          </CharString>
          <CharString index="167">
            -43 35 -35 43 43 34 35 43 43 -34 34 -43 -43 -35 -34 -43 vhcurveto
            return
          </CharString>
          <CharString index="168">
            116 149 369 callgsubr
            return
          </CharString>
          <CharString index="169">
            -80 callsubr
            endchar
          </CharString>
          <CharString index="170">
            115 hlineto
            9 19 1 23 15 vvcurveto
            79 -72 66 -120 return
          </CharString>
          <CharString index="171">
            99 -65 62 -98 -106 -59 -66 -79 return
          </CharString>
          <CharString index="172">
            -4 callgsubr
            -144 100 -90 113 -12 -171 -156 rcurveline
            158 hlineto
            362 323 -73 80 rlineto
            -115 -69 -77 -38 -79 hhcurveto
            -67 -53 26 61 -20 hvcurveto
            return
          </CharString>
          <CharString index="173">
            -431 246 rmoveto
            44 callgsubr
            178 -38 hlineto
            -360 -314 rlineto
            165 hlineto
            195 172 rlineto
            -132 107 callgsubr
          </CharString>
          <CharString index="174">
            126 36 callsubr
            15 2 hlineto
            1 3 4 0 3 56 callgsubr
            -148 -227 vlineto
            return
          </CharString>
          <CharString index="175">
            -21 callgsubr
            -75 -86 -37 -171 -41 vhcurveto
            -183 19 127 -77 146 hhcurveto
            return
          </CharString>
          <CharString index="176">
            92 callsubr
            37 169 hstem
            43 135 367 135 vstem
            return
          </CharString>
          <CharString index="177">
            -90 callgsubr
            88 53 45 return
          </CharString>
          <CharString index="178">
            119 177 117 -46 113 return
          </CharString>
          <CharString index="179">
            0 95 callsubr
            return
          </CharString>
          <CharString index="180">
            21 179 callgsubr
            return
          </CharString>
          <CharString index="181">
            -51 rlineto
            -53 -18 -22 -32 -39 vvcurveto
            -45 34 -50 37 -31 vhcurveto
            77 26 rlineto
            -15 22 -14 24 23 vvcurveto
            17 9 17 20 10 vhcurveto
            return
          </CharString>
          <CharString index="182">
            -63 -44 18 51 51 40 31 74 hvcurveto
            2 95 -325 -95 143 448 callsubr
            -70 53 -36 83 -4 vhcurveto
            return
          </CharString>
          <CharString index="183">
            hhcurveto
            -75 -18 callsubr
            return
          </CharString>
          <CharString index="184">
            -98 vlineto
            -106 -11 -101 -63 -126 vvcurveto
            -96 57 -69 89 -29 vhcurveto
            -124 -159 rlineto
            184 callsubr
            142 hlineto
            -127 163 rlineto
            85 31 51 68 89 vvcurveto
            106 -68 66 -95 23 vhcurveto
            105 vlineto
            endchar
          </CharString>
          <CharString index="185">
            260 88 rmoveto
            -358 vlineto
            -64 18 -52 16 -43 17 rrcurveto
            46 33 38 51 64 vvcurveto
            return
          </CharString>
          <CharString index="186">
            54 -48 -66 27 -77 25 callgsubr
            return
          </CharString>
          <CharString index="187">
            117 142 116 return
          </CharString>
          <CharString index="188">
            -58 -40 rlineto
            -35 -24 -13 -26 -26 vvcurveto
            -55 59 -52 51 -23 vhcurveto
            65 50 rlineto
            -26 25 -30 29 26 vvcurveto
            9 5 10 11 9 vhcurveto
            134 104 -1 1 7 4 6 5 6 6 rlinecurve
            -135 118 174 callsubr
            41 40 50 return
          </CharString>
          <CharString index="189">
            21 -21 55 99 89 96 -15 100 139 101 -99 95 return
          </CharString>
          <CharString index="190">
            rmoveto
            -91 169 rlineto
            -126 hlineto
            116 -169 rlineto
            return
          </CharString>
          <CharString index="191">
            -108 95 -34 104 -2 vhcurveto
            -92 callgsubr
            return
          </CharString>
          <CharString index="192">
            451 callgsubr
            53 36 -35 -45 15 vhcurveto
            91 62 rlineto
            68 -33 -56 44 -87 55 callgsubr
            endchar
          </CharString>
          <CharString index="193">
            rmoveto
            -38 -29 -31 -37 -37 29 -30 38 37 31 30 37 37 -31 31 -37 hvcurveto
            -562 238 rmoveto
            -95 331 vlineto
            return
          </CharString>
          <CharString index="194">
            rmoveto
            -46 callsubr
            -100 callgsubr
            return
          </CharString>
          <CharString index="195">
            139 callgsubr
            2 hlineto
            -44 callsubr
            return
          </CharString>
          <CharString index="196">
            -74 callsubr
            1 return
          </CharString>
          <CharString index="197">
            -31 callsubr
            130 return
          </CharString>
          <CharString index="198">
            -46 0 103 183 102 183 103 return
          </CharString>
          <CharString index="199">
            149 -7 116 461 116 return
          </CharString>
          <CharString index="200">
            -45 -5 97 113 90 123 94 return
          </CharString>
          <CharString index="201">
            -156 -2 -117 -79 -150 vvcurveto
            return
          </CharString>
          <CharString index="202">
            180 -159 -21 return
          </CharString>
          <CharString index="203">
            235 callgsubr
            hvcurveto
            return
          </CharString>
          <CharString index="204">
            hlineto
            -2 -6 -1 -7 -8 194 callgsubr
            return
          </CharString>
          <CharString index="205">
            -22 callsubr
            -88 -58 64 75 return
          </CharString>
          <CharString index="206">
            rmoveto
            463 87 vlineto
            138 80 -96 -126 -142 -71 -99 -145 hvcurveto
            -218 569 rmoveto
            -674 220 vlineto
            212 131 141 205 187 -140 141 -203 hvcurveto
            endchar
          </CharString>
          <CharString index="207">
            150 98 6 95 67 162 callgsubr
            -105 117 return
          </CharString>
          <CharString index="208">
            -56 -33 rlineto
            -41 -25 -17 -28 -31 vvcurveto
            -51 46 -49 49 -28 351 callsubr
            -24 23 -19 22 25 vvcurveto
            14 8 13 13 9 vhcurveto
            150 110 13 8 10 8 8 11 rlinecurve
            117 callgsubr
            return
          </CharString>
          <CharString index="209">
            68 -28 52 -47 31 vhcurveto
            97 vlineto
            endchar
          </CharString>
          <CharString index="210">
            -78 callsubr
            64 56 -30 -39 61 hvcurveto
            return
          </CharString>
          <CharString index="211">
            -95 187 -74 callsubr
            return
          </CharString>
          <CharString index="212">
            95 56 95 hstemhm
            52 116 -104 119 136 117 -76 116 return
          </CharString>
          <CharString index="213">
            267 callgsubr
            -49 -36 34 54 52 35 40 54 4 11 0 -2 5 vhcurveto
            88 vlineto
            2 -9 -14 2 -12 hhcurveto
            -103 -82 -72 -106 -109 79 -72 98 41 36 11 22 28 hvcurveto
            return
          </CharString>
          <CharString index="214">
            85 422 callsubr
            -119 153 33 6 26 11 19 10 rlinecurve
            106 vlineto
            -20 -35 -51 -21 -59 hhcurveto
            -95 -68 44 84 84 67 49 114 26 37 -2 -4 23 hvcurveto
            endchar
          </CharString>
          <CharString index="215">
            252 callsubr
            88 callsubr
            return
          </CharString>
          <CharString index="216">
            98 callsubr
            96 87 44 105 hvcurveto
            return
          </CharString>
          <CharString index="217">
            70 callsubr
            100 hvcurveto
            return
          </CharString>
          <CharString index="218">
            rmoveto
            -469 -104 171 -570 127 570 171 hlineto
            endchar
          </CharString>
          <CharString index="219">
            88 65 95 141 callsubr
            return
          </CharString>
          <CharString index="220">
            46 62 17 36 26 hvcurveto
            117 callgsubr
            return
          </CharString>
          <CharString index="221">
            126 674 -126 hlineto
            return
          </CharString>
          <CharString index="222">
            rmoveto
            -25 -12 -21 -18 -31 hhcurveto
            return
          </CharString>
          <CharString index="223">
            279 -114 vlineto
            return
          </CharString>
          <CharString index="224">
            32 -71 rlineto
            100 return
          </CharString>
          <CharString index="225">
            -95 126 137 callgsubr
            -69 54 470 callgsubr
            return
          </CharString>
          <CharString index="226">
            -95 120 137 callgsubr
            -69 55 470 callgsubr
            return
          </CharString>
          <CharString index="227">
            82 -1 33 -12 -42 vvcurveto
            return
          </CharString>
          <CharString index="228">
            hhcurveto
            -56 -30 29 75 hvcurveto
            return
          </CharString>
          <CharString index="229">
            149 118 return
          </CharString>
          <CharString index="230">
            -419 167 callgsubr
            21 hvcurveto
            78 -115 rlineto
            126 hlineto
            -109 167 389 callgsubr
            return
          </CharString>
          <CharString index="231">
            -555 -95 523 36 callsubr
            2 hlineto
            2 7 8 1 8 56 callgsubr
            -49 vlineto
            11 -23 -28 6 -32 -28 callsubr
            return
          </CharString>
          <CharString index="232">
            98 -75 69 -113 -114 -70 -77 -85 -64 29 -55 65 -49 vhcurveto
            -185 -109 92 -71 return
          </CharString>
          <CharString index="233">
            20 -7 103 316 102 hstem
            65 120 248 123 vstem
            311 96 rmoveto
            -64 -62 52 109 111 67 44 61 67 53 -55 -103 -102 -52 -56 -70 hvcurveto
            -126 return
          </CharString>
          <CharString index="234">
            105 79 33 33 46 hvcurveto
            -1 11 rlineto
            1 hlineto
            endchar
          </CharString>
          <CharString index="235">
            142 40 91 67 108 vvcurveto
            60 callgsubr
            return
          </CharString>
          <CharString index="236">
            -54 -51 -82 -104 -62 -41 28 53 342 callgsubr
            125 vlineto
            return
          </CharString>
          <CharString index="237">
            3 1 7 0 3 1 rrcurveto
            76 13 28 50 84 vvcurveto
            119 return
          </CharString>
          <CharString index="238">
            147 callsubr
            hvcurveto
            return
          </CharString>
          <CharString index="239">
            72 -95 callsubr
            -13 19 vhcurveto
            return
          </CharString>
          <CharString index="240">
            -53 -49 35 51 -23 hvcurveto
            -107 -233 116 hlineto
            return
          </CharString>
          <CharString index="241">
            vlineto
            65 callgsubr
            return
          </CharString>
          <CharString index="242">
            167 250 callsubr
            hvcurveto
            return
          </CharString>
          <CharString index="243">
            4 14 23 5 22 hhcurveto
            35 return
          </CharString>
          <CharString index="244">
            63 73 callgsubr
            return
          </CharString>
          <CharString index="245">
            40 91 67 108 vvcurveto
            return
          </CharString>
          <CharString index="246">
            -86 -61 -50 -106 vhcurveto
            return
          </CharString>
          <CharString index="247">
            -95 365 40 callgsubr
            return
          </CharString>
          <CharString index="248">
            hstemhm
            30 135 24 145 callsubr
            return
          </CharString>
          <CharString index="249">
            39 52 hvcurveto
            -114 hlineto
            -119 return
          </CharString>
          <CharString index="250">
            -128 118 return
          </CharString>
          <CharString index="251">
            vvcurveto
            -86 70 -55 95 -12 vhcurveto
            -146 -130 rlineto
            160 hlineto
            217 199 rlineto
            return
          </CharString>
          <CharString index="252">
            116 45 109 return
          </CharString>
          <CharString index="253">
            372 rmoveto
            -4 0 -3 -4 vvcurveto
            -200 204 rlineto
            200 hlineto
            -225 -71 rmoveto
            196 -195 rlineto
            -25 -23 -33 -13 -32 hhcurveto
            -61 -47 33 77 hvcurveto
            return
          </CharString>
          <CharString index="254">
            138 82 70 96 81 -61 52 -93 -35 -37 -9 -13 -27 return
          </CharString>
          <CharString index="255">
            -141 32 98 -77 114 hhcurveto
            -77 callsubr
            return
          </CharString>
          <CharString index="256">
            -83 121 507 vlineto
            endchar
          </CharString>
          <CharString index="257">
            -159 -83 -91 -120 return
          </CharString>
          <CharString index="258">
            hstemhm
            23 116 return
          </CharString>
          <CharString index="259">
            450 callgsubr
            136 callgsubr
            hvcurveto
            102 vlineto
            166 callgsubr
            return
          </CharString>
          <CharString index="260">
            -97 vlineto
            100 55 -40 -62 -63 -44 -25 352 callsubr
            113 89 68 102 54 -24 41 -42 25 hvcurveto
            return
          </CharString>
          <CharString index="261">
            293 callgsubr
            462 169 170 callgsubr
            hintmask 10111000
            return
          </CharString>
          <CharString index="262">
            vvcurveto
            142 callgsubr
            return
          </CharString>
          <CharString index="263">
            301 37 callgsubr
            return
          </CharString>
          <CharString index="264">
            hhcurveto
            43 29 -16 -26 -53 -75 -24 -74 -16 hvcurveto
            return
          </CharString>
          <CharString index="265">
            88 65 95 209 callsubr
            return
          </CharString>
          <CharString index="266">
            vlineto
            -28 268 callsubr
            return
          </CharString>
          <CharString index="267">
            321 callgsubr
            43 117 return
          </CharString>
          <CharString index="268">
            vlineto
            203 callsubr
            return
          </CharString>
          <CharString index="269">
            352 rmoveto
            hintmask 11111110
            -107 callsubr
            186 callgsubr
            return
          </CharString>
          <CharString index="270">
            -33 -18 rlineto
            -43 -24 -15 -30 -29 vvcurveto
            -54 49 -49 46 -25 vhcurveto
            68 43 rlineto
            -20 19 -21 24 25 vvcurveto
            13 5 15 13 10 vhcurveto
            146 115 return
          </CharString>
          <CharString index="271">
            212 134 -565 -56 callsubr
          </CharString>
          <CharString index="272">
            rmoveto
            -70 -72 27 71 67 66 30 78 73 69 -27 -71 -66 -67 -31 -77 hvcurveto
            return
          </CharString>
          <CharString index="273">
            467 241 callgsubr
            103 95 -597 -95 378 -65 -156 vlineto
            return
          </CharString>
          <CharString index="274">
            119 -8 204 callgsubr
            108 176 117 return
          </CharString>
          <CharString index="275">
            -26 5 -21 6 -19 vhcurveto
            113 hlineto
            return
          </CharString>
          <CharString index="276">
            -119 hlineto
            370 callsubr
            return
          </CharString>
          <CharString index="277">
            99 -65 62 -97 -107 -58 -66 -79 return
          </CharString>
          <CharString index="278">
            119 383 callgsubr
            return
          </CharString>
          <CharString index="279">
            29 24 21 34 51 vvcurveto
            return
          </CharString>
          <CharString index="280">
            -23 -7 -22 -12 -18 vhcurveto
            return
          </CharString>
          <CharString index="281">
            293 vlineto
            58 return
          </CharString>
          <CharString index="282">
            432 callgsubr
            14 vhcurveto
            -128 7 69 -52 109 14 callsubr
            vlineto
            return
          </CharString>
          <CharString index="283">
            -68 -33 -35 -53 -47 18 -42 216 callgsubr
            33 10 10 24 vhcurveto
            122 -172 111 406 hlineto
            return
          </CharString>
          <CharString index="284">
            120 267 hlineto
            -56 35 54 -27 65 hhcurveto
            137 80 115 148 153 -83 105 -133 -68 -53 -31 -54 -34 hvcurveto
            endchar
          </CharString>
          <CharString index="285">
            vvcurveto
            105 -68 66 -94 24 vhcurveto
            105 vlineto
            endchar
          </CharString>
          <CharString index="286">
            -50 -69 -63 56 -34 70 -3 hvcurveto
            hintmask 1111110110000000
            -78 -2 -57 -40 -67 vvcurveto
            return
          </CharString>
          <CharString index="287">
            -196 -156 rlineto
            175 hlineto
            137 109 90 67 58 54 rrcurveto
            return
          </CharString>
          <CharString index="288">
            -118 82 -93 131 46 62 17 36 26 vhcurveto
            117 callgsubr
            return
          </CharString>
          <CharString index="289">
            -3 -195 110 101 98 296 103 return
          </CharString>
          <CharString index="290">
            136 callsubr
            25 -13 -33 return
          </CharString>
          <CharString index="291">
            141 hlineto
            87 128 86 -128 rlineto
            return
          </CharString>
          <CharString index="292">
            -14 -21 -28 -13 -31 hhcurveto
            -32 -20 15 29 return
          </CharString>
          <CharString index="293">
            -221 118 return
          </CharString>
          <CharString index="294">
            -39 -22 rlineto
            -43 -23 -15 -30 -30 vvcurveto
            -52 47 -49 48 -27 vhcurveto
            69 41 rlineto
            -21 21 -21 24 26 vvcurveto
            14 5 13 13 11 vhcurveto
            return
          </CharString>
          <CharString index="295">
            -70 -42 rlineto
            -39 -23 -14 -28 -29 vvcurveto
            -54 51 -49 47 -26 351 callsubr
            -25 23 -20 24 24 vvcurveto
            15 8 13 13 9 vhcurveto
            return
          </CharString>
          <CharString index="296">
            310 callsubr
            170 -274 rlineto
            134 hlineto
            -169 276 rlineto
            1 2 5 0 3 hhcurveto
            return
          </CharString>
          <CharString index="297">
            -59 -34 rlineto
            -36 -22 -17 -26 -32 vvcurveto
            -53 48 -49 49 -28 vhcurveto
            69 45 rlineto
            -23 25 -24 31 24 vvcurveto
            13 6 10 12 9 vhcurveto
            return
          </CharString>
          <CharString index="298">
            85 vlineto
            185 callsubr
            return
          </CharString>
          <CharString index="299">
            150 hlineto
            205 235 rlineto
            -235 118 return
          </CharString>
          <CharString index="300">
            299 rmoveto
            288 callsubr
            return
          </CharString>
          <CharString index="301">
            -95 100 -303 hlineto
            -165 114 -69 152 return
          </CharString>
          <CharString index="302">
            -25 -25 -4 -3 -18 hvcurveto
            return
          </CharString>
          <CharString index="303">
            196 2 hlineto
            endchar
          </CharString>
          <CharString index="304">
            -54 callsubr
            hintmask 10111110
            259 callsubr
          </CharString>
          <CharString index="305">
            99 43 -36 -53 -65 -44 -31 -86 -44 -48 10 23 -44 hvcurveto
            -108 vlineto
            -15 42 54 -8 47 hhcurveto
            153 88 69 115 return
          </CharString>
          <CharString index="306">
            186 242 rlineto
            -140 hlineto
            -179 -238 rlineto
            426 -120 -695 463 callgsubr
            return
          </CharString>
          <CharString index="307">
            54 callsubr
            64 callsubr
            return
          </CharString>
          <CharString index="308">
            63 29 19 47 28 31 -7 -10 28 vhcurveto
            -5 -19 -3 -22 -23 vvcurveto
            return
          </CharString>
          <CharString index="309">
            rmoveto
            -127 hlineto
            146 -162 -146 -162 rlineto
            127 hlineto
            return
          </CharString>
          <CharString index="310">
            224 95 rmoveto
            return
          </CharString>
          <CharString index="311">
            88 -43 47 -94 return
          </CharString>
          <CharString index="312">
            116 rlineto
            9 hlineto
            46 69 17 36 26 hvcurveto
            -47 -206 rmoveto
            -14 -20 -25 -7 -28 hhcurveto
            hintmask 11110110
            -60 -43 32 55 26 return
          </CharString>
          <CharString index="313">
            -84 callsubr
            95 -223 -294 vlineto
            -119 -90 -42 -76 -67 -53 26 61 -20 vhcurveto
            398 callsubr
            return
          </CharString>
          <CharString index="314">
            rlineto
            -39 -24 -15 -28 -29 vvcurveto
            -55 53 -48 46 -24 226 callgsubr
            -21 23 25 vvcurveto
            14 6 13 13 8 vhcurveto
            return
          </CharString>
          <CharString index="315">
            97 vlineto
            -16 -67 -32 -3 -34 hhcurveto
            return
          </CharString>
          <CharString index="316">
            hstemhm
            189 145 callsubr
            return
          </CharString>
          <CharString index="317">
            172 callgsubr
            31 -40 return
          </CharString>
          <CharString index="318">
            -38 -24 -16 -27 -29 vvcurveto
            -54 53 -51 46 -24 226 callgsubr
            -20 24 26 vvcurveto
            14 7 13 15 9 vhcurveto
            return
          </CharString>
          <CharString index="319">
            33 25 21 36 45 vvcurveto
            91 -59 50 -113 2 vhcurveto
            -100 -8 rlineto
            -36 1 -22 15 28 vvcurveto
            34 32 6 33 vhcurveto
            return
          </CharString>
          <CharString index="320">
            -48 callgsubr
            164 callsubr
          </CharString>
          <CharString index="321">
            -95 vlineto
            -10 28 24 -4 31 hhcurveto
            80 58 44 95 hvcurveto
            221 135 -565 116 -97 callgsubr
          </CharString>
          <CharString index="322">
            99 151 95 hstemhm
            52 118 -108 118 -80 122 return
          </CharString>
          <CharString index="323">
            -90 -89 -43 -102 -109 97 -36 91 -1 hvcurveto
            return
          </CharString>
          <CharString index="324">
            343 callgsubr
            54 320 callsubr
            return
          </CharString>
          <CharString index="325">
            301 callgsubr
            296 127 vstem
            return
          </CharString>
          <CharString index="326">
            hlineto
            114 callgsubr
            return
          </CharString>
          <CharString index="327">
            291 callsubr
            hvcurveto
            return
          </CharString>
          <CharString index="328">
            66 126 275 126 return
          </CharString>
          <CharString index="329">
            38 126 238 125 return
          </CharString>
          <CharString index="330">
            -13 -15 -2 -3 -13 hvcurveto
            return
          </CharString>
          <CharString index="331">
            117 165 117 return
          </CharString>
          <CharString index="332">
            -48 22 51 48 40 30 return
          </CharString>
          <CharString index="333">
            190 -187 hlineto
            return
          </CharString>
          <CharString index="334">
            112 105 111 return
          </CharString>
          <CharString index="335">
            -78 -110 vlineto
            hintmask 11111001
            -159 -93 -89 -121 -73 35 -64 63 -36 hvcurveto
            hintmask 11110101
            -45 -28 -26 -45 -60 vvcurveto
            return
          </CharString>
          <CharString index="336">
            88 72 98 106 90 80 345 callsubr
            52 118 -93 116 127 117 -102 111 -63 117 return
          </CharString>
          <CharString index="337">
            65 -42 -37 26 -74 hhcurveto
            195 callsubr
            -99 vlineto
            136 callsubr
            24 -13 -33 22 hvcurveto
            return
          </CharString>
          <CharString index="338">
            rmoveto
            -282 -277 282 -126 453 callsubr
            283 277 -283 127 674 vlineto
            endchar
          </CharString>
          <CharString index="339">
            490 344 rmoveto
            -72 -35 -72 -96 -109 hhcurveto
            -54 225 callsubr
            64 hvcurveto
            53 99 -44 hlineto
            return
          </CharString>
          <CharString index="340">
            -25 callgsubr
            -223 -341 hlineto
            335 callsubr
            return
          </CharString>
          <CharString index="341">
            vvcurveto
            243 callgsubr
            return
          </CharString>
          <CharString index="342">
            -95 90 -191 vlineto
            -68 callsubr
            return
          </CharString>
          <CharString index="343">
            vvcurveto
            -91 81 -98 181 239 callgsubr
            -110 -41 41 52 return
          </CharString>
          <CharString index="344">
            -50 callsubr
            116 callgsubr
            return
          </CharString>
          <CharString index="345">
            281 callsubr
            155 return
          </CharString>
          <CharString index="346">
            -171 118 565 99 95 vlineto
            endchar
          </CharString>
          <CharString index="347">
            62 54 38 124 return
          </CharString>
          <CharString index="348">
            hstemhm
            242 callsubr
            return
          </CharString>
          <CharString index="349">
            186 117 return
          </CharString>
          <CharString index="350">
            -34 hlineto
            -50 -33 29 46 36 16 29 32 23 hvcurveto
            214 hlineto
            -4 -587 rmoveto
            -65 -58 -53 -67 vhcurveto
            return
          </CharString>
          <CharString index="351">
            87 62 94 218 91 95 95 hstemhm
            43 119 -87 117 73 117 -48 111 0 119 return
          </CharString>
          <CharString index="352">
            -70 109 callgsubr
            return
          </CharString>
          <CharString index="353">
            210 -121 hlineto
            -55 -23 -24 -50 vhcurveto
            return
          </CharString>
          <CharString index="354">
            96 vlineto
            -24 34 43 -14 52 hhcurveto
            96 89 return
          </CharString>
          <CharString index="355">
            97 106 95 hstemhm
            99 135 12 112 return
          </CharString>
          <CharString index="356">
            469 callsubr
            115 return
          </CharString>
          <CharString index="357">
            20 319 callgsubr
            return
          </CharString>
          <CharString index="358">
            -112 117 565 return
          </CharString>
          <CharString index="359">
            rlineto
            151 hlineto
            return
          </CharString>
          <CharString index="360">
            392 callsubr
            40 38 5 11 34 vhcurveto
            -86 -171 vlineto
            return
          </CharString>
          <CharString index="361">
            -98 11 74 -67 107 hhcurveto
            47 36 17 25 27 hvcurveto
            -2 callgsubr
            return
          </CharString>
          <CharString index="362">
            88 75 100 226 93 96 95 hstemhm
            37 119 -88 116 142 111 -111 117 return
          </CharString>
          <CharString index="363">
            57 28 29 51 50 33 -30 -56 vhcurveto
            -76 -105 -95 106 -565 426 callgsubr
            -108 return
          </CharString>
          <CharString index="364">
            90 311 95 82 349 callsubr
            49 117 -104 121 79 112 52 117 -33 107 return
          </CharString>
          <CharString index="365">
            223 -178 178 -157 -21 316 98 151 95 hstemhm
            54 118 -108 118 return
          </CharString>
          <CharString index="366">
            -185 260 rlineto
            -5 35 46 -4 60 hhcurveto
            157 -251 -28 callgsubr
          </CharString>
          <CharString index="367">
            -57 -189 100 645 169 hstem
            6 502 vstem
            return
          </CharString>
          <CharString index="368">
            21 -21 251 288 callgsubr
            return
          </CharString>
          <CharString index="369">
            vvcurveto
            -14 callgsubr
            return
          </CharString>
          <CharString index="370">
            227 21 -21 379 128 return
          </CharString>
          <CharString index="371">
            35 -8 116 459 116 return
          </CharString>
          <CharString index="372">
            118 vstem
            -27 -25 callgsubr
            -95 return
          </CharString>
          <CharString index="373">
            vlineto
            -15 38 46 -7 42 hhcurveto
            return
          </CharString>
          <CharString index="374">
            -95 82 -226 -160 hlineto
            return
          </CharString>
          <CharString index="375">
            -7 -17 -23 -31 vvcurveto
            return
          </CharString>
          <CharString index="376">
            -111 vlineto
            26 38 56 19 55 hhcurveto
            74 23 -33 -53 hvcurveto
            -31 -73 vlineto
            -138 -73 -59 -96 return
          </CharString>
          <CharString index="377">
            -78 -112 hvcurveto
            -68 377 callgsubr
            57 33 34 return
          </CharString>
          <CharString index="378">
            277 callgsubr
            vlineto
            return
          </CharString>
          <CharString index="379">
            -95 292 -95 vlineto
            -113 -11 -109 -65 -123 vvcurveto
            143 callsubr
            -76 145 vhcurveto
            return
          </CharString>
          <CharString index="380">
            -97 callsubr
            -138 -89 -93 -122 return
          </CharString>
          <CharString index="381">
            115 -77 84 -129 -103 -70 -27 callsubr
            vhcurveto
            endchar
          </CharString>
          <CharString index="382">
            -11 callsubr
            224 95 rmoveto
            return
          </CharString>
          <CharString index="383">
            296 callsubr
            hvcurveto
            return
          </CharString>
          <CharString index="384">
            15 21 -21 246 104 220 104 49 169 287 callsubr
            return
          </CharString>
          <CharString index="385">
            hhcurveto
            -88 callgsubr
            vlineto
            hintmask 11110111
            -45 callsubr
          </CharString>
          <CharString index="386">
            106 -71 80 -137 -94 -74 -61 -86 -83 62 -53 77 16 19 3 6 17 vhcurveto
            endchar
          </CharString>
          <CharString index="387">
            65 -51 25 -74 1 rlinecurve
            195 callsubr
            return
          </CharString>
          <CharString index="388">
            209 callgsubr
            hstem
            104 120 return
          </CharString>
          <CharString index="389">
            371 callgsubr
            -105 123 172 118 return
          </CharString>
          <CharString index="390">
            -85 -8 -60 -43 -74 vvcurveto
            -85 65 -55 93 -16 vhcurveto
            return
          </CharString>
          <CharString index="391">
            94 -45 94 150 95 -95 100 151 callsubr
            return
          </CharString>
          <CharString index="392">
            -31 23 -23 30 32 23 23 31 30 -23 24 -32 return
          </CharString>
          <CharString index="393">
            hstem
            65 120 200 120 vstem
            return
          </CharString>
          <CharString index="394">
            301 callgsubr
            200 128 vstem
            return
          </CharString>
          <CharString index="395">
            -60 callgsubr
            vhcurveto
            return
          </CharString>
          <CharString index="396">
            -123 hlineto
            -42 -16 -30 -46 -9 vhcurveto
            return
          </CharString>
          <CharString index="397">
            -5 28 101 142 94 200 95 return
          </CharString>
          <CharString index="398">
            -97 hlineto
            373 callsubr
            return
          </CharString>
          <CharString index="399">
            rmoveto
            83 -328 -83 vlineto
            return
          </CharString>
          <CharString index="400">
            192 440 rmoveto
            return
          </CharString>
          <CharString index="401">
            hstemhm
            53 118 return
          </CharString>
          <CharString index="402">
            337 rmoveto
            -100 -75 -61 -100 -55 225 callsubr
            65 vhcurveto
            52 99 -43 hlineto
            return
          </CharString>
          <CharString index="403">
            hhcurveto
            304 callgsubr
            return
          </CharString>
          <CharString index="404">
            vvcurveto
            -100 59 -78 96 -24 vhcurveto
            -133 -129 rlineto
            152 hlineto
            173 173 rlineto
            return
          </CharString>
          <CharString index="405">
            210 85 3 90 24 88 65 95 hstemhm
            119 116 -46 145 callsubr
            return
          </CharString>
          <CharString index="406">
            196 2 hlineto
            151 231 95 vlineto
            endchar
          </CharString>
          <CharString index="407">
            94 78 95 hstemhm
            return
          </CharString>
          <CharString index="408">
            rlineto
            142 hlineto
            return
          </CharString>
          <CharString index="409">
            100 hlineto
            hintmask 1111101110000000
            -47 hlineto
            -57 -43 11 37 28 22 23 58 37 39 -7 -12 return
          </CharString>
          <CharString index="410">
            102 vlineto
            -22 35 45 -12 49 hhcurveto
            107 73 73 88 103 -64 50 -145 3 hvcurveto
            return
          </CharString>
          <CharString index="411">
            310 callgsubr
            65 callgsubr
            return
          </CharString>
          <CharString index="412">
            330 rmoveto
            -200 81 -138 153 158 78 140 198 203 return
          </CharString>
          <CharString index="413">
            -40 -66 -111 -154 -143 -133 -94 hvcurveto
            -96 427 103 vlineto
            endchar
          </CharString>
          <CharString index="414">
            hintmask 11010000
            358 callsubr
            return
          </CharString>
          <CharString index="415">
            -40 460 callgsubr
            return
          </CharString>
          <CharString index="416">
            94 95 181 97 98 95 hstem
            84 113 return
          </CharString>
          <CharString index="417">
            289 callgsubr
            -84 hlineto
            return
          </CharString>
          <CharString index="418">
            36 44 43 36 -36 -44 -43 -36 -36 -43 -44 return
          </CharString>
          <CharString index="419">
            -95 93 -191 vlineto
            -143 86 -63 120 return
          </CharString>
          <CharString index="420">
            41 68 62 46 39 57 22 18 -4 -5 19 return
          </CharString>
          <CharString index="421">
            115 callgsubr
            190 118 return
          </CharString>
          <CharString index="422">
            117 -45 callsubr
          </CharString>
          <CharString index="423">
            rmoveto
            -328 -83 328 hlineto
            return
          </CharString>
          <CharString index="424">
            384 21 -21 664 -20 return
          </CharString>
          <CharString index="425">
            61 -89 274 169 rlineto
            return
          </CharString>
          <CharString index="426">
            204 callsubr
            -29 return
          </CharString>
          <CharString index="427">
            118 -107 118 return
          </CharString>
          <CharString index="428">
            142 hlineto
            93 122 93 -122 301 callsubr
            -159 186 rlineto
            return
          </CharString>
          <CharString index="429">
            -109 -89 60 99 -29 hvcurveto
            158 callgsubr
            return
          </CharString>
          <CharString index="430">
            rmoveto
            -36 30 -31 37 36 31 31 36 36 -31 31 -36 -37 -30 -31 -36 vhcurveto
            return
          </CharString>
          <CharString index="431">
            96 vlineto
            -23 36 45 -14 48 hhcurveto
            107 75 64 96 26 -4 22 -8 20 hvcurveto
            return
          </CharString>
          <CharString index="432">
            -94 -89 -38 -99 -88 68 -39 124 69 38 -11 -45 -45 -34 -24 -48 hvcurveto
            return
          </CharString>
          <CharString index="433">
            21 -21 174 94 132 94 71 95 hstem
            63 -19 callgsubr
            return
          </CharString>
          <CharString index="434">
            -179 315 callsubr
          </CharString>
          <CharString index="435">
            97 106 173 callgsubr
            return
          </CharString>
          <CharString index="436">
            92 100 66 95 41 97 74 95 return
          </CharString>
          <CharString index="437">
            -38 -8 callsubr
            return
          </CharString>
          <CharString index="438">
            115 467 callsubr
            return
          </CharString>
          <CharString index="439">
            110 467 110 return
          </CharString>
          <CharString index="440">
            21 -21 58 100 return
          </CharString>
          <CharString index="441">
            -255 204 return
          </CharString>
          <CharString index="442">
            -93 -68 -61 -102 -64 -43 28 48 48 41 24 67 405 callgsubr
            return
          </CharString>
          <CharString index="443">
            376 callsubr
            43 117 return
          </CharString>
          <CharString index="444">
            203 callgsubr
            hlineto
            return
          </CharString>
          <CharString index="445">
            454 callsubr
            41 31 31 40 40 -31 32 -41 -40 -31 -32 -40 vhcurveto
            return
          </CharString>
          <CharString index="446">
            -1 rmoveto
            110 hlineto
            372 692 rlineto
            -111 hlineto
            -67 -521 rmoveto
            return
          </CharString>
          <CharString index="447">
            -57 -14 -23 -55 vhcurveto
            -67 -93 hlineto
            43 -117 78 -94 113 -38 rrcurveto
            return
          </CharString>
          <CharString index="448">
            -193 rmoveto
            204 193 -204 hlineto
            return
          </CharString>
          <CharString index="449">
            94 132 115 callgsubr
            return
          </CharString>
          <CharString index="450">
            0 180 -179 return
          </CharString>
          <CharString index="451">
            95 hstemhm
            66 113 return
          </CharString>
          <CharString index="452">
            94 59 95 hstemhm
            return
          </CharString>
          <CharString index="453">
            -195 334 callsubr
            46 99 323 90 hstem
            91 120 vstem
            return
          </CharString>
          <CharString index="454">
            108 vlineto
            15 -31 -35 5 -38 hhcurveto
            -97 -61 -66 -94 hvcurveto
            -69 vlineto
            return
          </CharString>
          <CharString index="455">
            rlineto
            -32 -28 -13 -29 -28 vvcurveto
            -47 40 -44 51 -24 vhcurveto
            66 40 rlineto
            return
          </CharString>
          <CharString index="456">
            92 65 95 hstemhm
            return
          </CharString>
          <CharString index="457">
            49 169 hstem
            return
          </CharString>
          <CharString index="458">
            vhcurveto
            69 43 rlineto
            return
          </CharString>
          <CharString index="459">
            -67 64 callgsubr
            return
          </CharString>
          <CharString index="460">
            -113 -2 -80 -49 -37 -72 rrcurveto
            362 219 rmoveto
            102 95 return
          </CharString>
          <CharString index="461">
            91 24 112 callsubr
            return
          </CharString>
          <CharString index="462">
            -247 rmoveto
            98 hlineto
            119 247 rlineto
            -126 hlineto
            endchar
          </CharString>
          <CharString index="463">
            95 hstem
            138 callgsubr
            return
          </CharString>
          <CharString index="464">
            hstem
            42 125 225 120 vstem
            return
          </CharString>
          <CharString index="465">
            70 hmoveto
            444 callsubr
            return
          </CharString>
          <CharString index="466">
            -82 callgsubr
            -34 return
          </CharString>
          <CharString index="467">
            95 -95 100 382 callsubr
            return
          </CharString>
          <CharString index="468">
            18 vvcurveto
            33 10 10 23 vhcurveto
            return
          </CharString>
          <CharString index="469">
            -7 103 -96 96 316 102 return
          </CharString>
          <CharString index="470">
            -181 -129 -70 -127 return
          </CharString>
          <CharString index="471">
            -111 43 -61 73 -21 vhcurveto
            return
          </CharString>
          <CharString index="472" raw="1">
            fb47440a 0b  
          </CharString>
          <CharString index="473">
            135 -2 -80 33 -87 hhcurveto
            return
          </CharString>
          <CharString index="474">
            hstem
            370 114 vstem
            return
          </CharString>
          <CharString index="475">
            rmoveto
            172 119 95 return
          </CharString>
          <CharString index="476">
            -104 629 169 hstem
            return
          </CharString>
          <CharString index="477">
            121 -172 rlineto
            return
          </CharString>
          <CharString index="478">
            42 33 3 14 64 return
          </CharString>
          <CharString index="479">
            -73 -55 29 50 return
          </CharString>
          <CharString index="480">
            100 55 -40 -69 return
          </CharString>
          <CharString index="481">
            311 102 152 95 hstemhm
            96 116 -111 123 return
          </CharString>
          <CharString index="482">
            115 callgsubr
            -105 135 160 118 return
          </CharString>
          <CharString index="483">
            333 callsubr
            -81 92 193 97 -54 321 callgsubr
            return
          </CharString>
          <CharString index="484">
            -98 callsubr
            95 return
          </CharString>
          <CharString index="485">
            95 225 41 callgsubr
            return
          </CharString>
          <CharString index="486">
            498 rmoveto
            -57 hlineto
            -163 -284 rlineto
            57 hlineto
            endchar
          </CharString>
          <CharString index="487">
            116 -45 callsubr
          </CharString>
          <CharString index="488">
            -63 -44 -32 -67 return
          </CharString>
          <CharString index="489">
            hstemhm
            93 116 return
          </CharString>
          <CharString index="490">
            vhcurveto
            106 vlineto
            -19 return
          </CharString>
          <CharString index="491">
            185 callgsubr
            -92 113 return
          </CharString>
          <CharString index="492">
            457 callgsubr
            -128 hlineto
            return
          </CharString>
          <CharString index="493">
            91 24 158 callsubr
            return
          </CharString>
          <CharString index="494">
            382 callgsubr
            236 441 callgsubr
            return
          </CharString>
          <CharString index="495">
            118 vstem
            194 hmoveto
            118 660 -118 hlineto
            return
          </CharString>
          <CharString index="496">
            -21 268 90 207 95 hstem
            209 117 vstem
            return
          </CharString>
          <CharString index="497">
            -140 121 -70 168 -2 vhcurveto
            -75 -157 vlineto
            return
          </CharString>
          <CharString index="498">
            73 34 46 62 78 vvcurveto
            103 -79 67 -103 22 vhcurveto
            102 return
          </CharString>
          <CharString index="499">
            -81 406 callgsubr
            -112 114 -59 131 return
          </CharString>
          <CharString index="500">
            301 451 callgsubr
            53 36 -35 -45 15 vhcurveto
            return
          </CharString>
          <CharString index="501">
            1 99 -12 94 69 95 23 97 -74 101 72 95 hstemhm
            return
          </CharString>
          <CharString index="502">
            -4 21 361 callsubr
            109 -130 return
          </CharString>
          <CharString index="503">
            rmoveto
            104 hlineto
            133 247 rlineto
            -139 hlineto
            endchar
          </CharString>
          <CharString index="504">
            hstemhm
            443 callsubr
            return
          </CharString>
          <CharString index="505">
            142 40 90 67 108 vvcurveto
            return
          </CharString>
          <CharString index="506">
            114 21 409 callgsubr
            return
          </CharString>
          <CharString index="507">
            444 callgsubr
            hlineto
            return
          </CharString>
          <CharString index="508">
            135 12 228 callgsubr
            return
          </CharString>
          <CharString index="509">
            -167 21 105 -92 125 hhcurveto
            return
          </CharString>
          <CharString index="510">
            368 callgsubr
            -76 -21 return
          </CharString>
          <CharString index="511">
            27 -12 -9 19 vhcurveto
            endchar
          </CharString>
          <CharString index="512">
            95 382 callsubr
            return
          </CharString>
          <CharString index="513">
            204 callsubr
            vhcurveto
            return
          </CharString>
          <CharString index="514">
            21 -21 251 95 return
          </CharString>
          <CharString index="515">
            345 callsubr
            45 return
          </CharString>
          <CharString index="516">
            112 141 return
          </CharString>
          <CharString index="517">
            rmoveto
            -126 hlineto
            return
          </CharString>
          <CharString index="518">
            395 101 69 95 hstemhm
            46 119 -69 122 return
          </CharString>
          <CharString index="519">
            117 -97 118 237 115 -44 119 return
          </CharString>
          <CharString index="520">
            11 -20 -33 8 -32 hhcurveto
            -75 -55 -46 -64 -12 hvcurveto
            return
          </CharString>
          <CharString index="521">
            95 178 97 -75 94 80 162 callgsubr
            return
          </CharString>
          <CharString index="522">
            -25 23 -19 23 23 vvcurveto
            12 5 11 14 14 vhcurveto
            return
          </CharString>
          <CharString index="523">
            vstem
            423 -25 callgsubr
            -450 -95 450 hlineto
            return
          </CharString>
          <CharString index="524">
            430 callsubr
            hlineto
            return
          </CharString>
          <CharString index="525">
            hstem
            64.5 120.5 vstem
            return
          </CharString>
          <CharString index="526">
            49 94 vvcurveto
            37 -10 32 -12 19 vhcurveto
            151 hlineto
            return
          </CharString>
          <CharString index="527">
            -892 rmoveto
            114 callsubr
            endchar
          </CharString>
          <CharString index="528">
            247 rlineto
            -137 hlineto
            endchar
          </CharString>
          <CharString index="529">
            -128 -54 callsubr
            return
          </CharString>
          <CharString index="530">
            40 27 -20 -29 13 vhcurveto
            return
          </CharString>
          <CharString index="531">
            -105 0 97 314 96 return
          </CharString>
          <CharString index="532">
            18 58 -2 -4 19 hvcurveto
            return
          </CharString>
          <CharString index="533">
            -50 236 -178 89 return
          </CharString>
          <CharString index="534">
            -91 -88 -43 -102 return
          </CharString>
          <CharString index="535">
            85 -9 116 return
          </CharString>
          <CharString index="536">
            rmoveto
            -33 -25 -25 -23 -42 hhcurveto
            hintmask 01011000
            -61 -43 return
          </CharString>
          <CharString index="537">
            -87 callsubr
            -106 return
          </CharString>
          <CharString index="538">
            97 hstemhm
            73 112 -104 122 87 110 return
          </CharString>
          <CharString index="539">
            -5 108 178 101 172 108 hstemhm
            return
          </CharString>
          <CharString index="540">
            hlineto
            88 129 85 -129 -54 callsubr
            return
          </CharString>
          <CharString index="541">
            95 51 95 hstemhm
            54 119 -109 119 return
          </CharString>
          <CharString index="542">
            -64 2 -28 13 32 vvcurveto
            32 29 14 37 vhcurveto
            return
          </CharString>
          <CharString index="543">
            57 -2 41 -12 -46 vvcurveto
            -40 -33 -29 -43 vhcurveto
            return
          </CharString>
          <CharString index="544">
            143 callsubr
            293 vlineto
            63 45 38 55 return
          </CharString>
          <CharString index="545">
            1 101 267 95 101 95 hstem
            87 119 return
          </CharString>
          <CharString index="546">
            -8 110 128 100 224 109 hstem
            return
          </CharString>
          <CharString index="547">
            hlineto
            -180 -85 -96 -133 return
          </CharString>
          <CharString index="548">
            94 151 95 -92 97 hstemhm
            return
          </CharString>
          <CharString index="549">
            379 507 rmoveto
            -155 return
          </CharString>
          <CharString index="550">
            38 123 248 120 return
          </CharString>
          <CharString index="551">
            120 507 -120 hlineto
            return
          </CharString>
          <CharString index="552">
            hhcurveto
            -46 -35 -17 -24 -26 hvcurveto
            return
          </CharString>
          <CharString index="553">
            73 callsubr
            35 95 return
          </CharString>
          <CharString index="554">
            164 hlineto
            204 callsubr
            return
          </CharString>
          <CharString index="555">
            hlineto
            292 callgsubr
            return
          </CharString>
          <CharString index="556">
            rlineto
            -126 hlineto
            -53 return
          </CharString>
          <CharString index="557">
            210 101 72 95 return
          </CharString>
          <CharString index="558">
            350 callsubr
            70 return
          </CharString>
          <CharString index="559">
            205 callgsubr
            16 return
          </CharString>
          <CharString index="560">
            -674 126 return
          </CharString>
          <CharString index="561">
            -40 31 -31 40 return
          </CharString>
          <CharString index="562">
            -80 -62 -37 -75 return
          </CharString>
          <CharString index="563">
            -29 -67 hvcurveto
            -38 -101 38 hlineto
            hintmask 11101000
            102 return
          </CharString>
          <CharString index="564">
            90.5 27 90 90 95 hstemhm
            return
          </CharString>
          <CharString index="565">
            hstemhm
            73 117 101 207 -98 116 return
          </CharString>
          <CharString index="566">
            -61 -42 19 50 30 15 22 25 18 hvcurveto
            return
          </CharString>
          <CharString index="567">
            -7 110 207 104 138 103 hstem
            return
          </CharString>
          <CharString index="568">
            104 92 95 hstemhm
            46 118 98 115 return
          </CharString>
          <CharString index="569">
            118 369 -80 callgsubr
            return
          </CharString>
          <CharString index="570">
            120 -113 118 204 118 return
          </CharString>
          <CharString index="571">
            158 hstemhm
            57 158 -135 115 return
          </CharString>
          <CharString index="572">
            -205 vlineto
            -11 -3 -8 -4 -7 -7 rrcurveto
            return
          </CharString>
          <CharString index="573">
            -52 41 70 71 52 42 85 hvcurveto
            endchar
          </CharString>
          <CharString index="574">
            121 117 return
          </CharString>
          <CharString index="575">
            hstemhm
            63 118 return
          </CharString>
          <CharString index="576">
            116 169 return
          </CharString>
          <CharString index="577">
            94 182 94 return
          </CharString>
        <CharString name=".notdef">
          -58 0 51 599 51 hstem
          3 54 400 53 vstem
          3 hmoveto
          507 701 -507 hlineto
          54 -51 rmoveto
          400 -599 -400 hlineto
          200 251 rmoveto
          105 -209 rlineto
          60 hlineto
          -135 254 135 261 rlineto
          -60 hlineto
          -100 -206 rlineto
          -4 hlineto
          -105 206 rlineto
          -60 hlineto
          134 -255 -134 -260 rlineto
          60 hlineto
          100 209 rlineto
          endchar
        </CharString>
        <CharString name="A">
          92 callgsubr
          hstem
          28 619 vstem
          241 256 -94 callsubr
        </CharString>
        <CharString name="AE">
          343 0 103 50 103 30 102 183 103 hstemhm
          463 123 vstemhm
          283 256 rmoveto
          15 29 78 143 57 113 30 70 rlinecurve
          -355 vlineto
          123 -153 rmoveto
          hintmask 10111000
          183 241 102 -241 183 271 103 -496 vlineto
          -347 -674 rlineto
          133 hlineto
          hintmask 11111000
          81 153 rlineto
          235 -153 398 103 hlineto
          endchar
        </CharString>
        <CharString name="Aacute">
          92 callgsubr
          350 callsubr
          28 619 vstem
          514 892 45 callsubr
          -157 -467 -94 callsubr
        </CharString>
        <CharString name="Abreve">
          92 callgsubr
          45 79 hstem
          151 470 callsubr
          vstem
          427 892 rmoveto
          -57 -32 -37 -59 -59 -32 37 57 vhcurveto
          -94 hlineto
          -30 callsubr
          -280 -636 -94 callsubr
        </CharString>
        <CharString name="Acircumflex">
          92 callgsubr
          350 callsubr
          28 619 vstem
          339 822 -44 callgsubr
          -17 -467 -94 callsubr
        </CharString>
        <CharString name="Adieresis">
          92 callgsubr
          65 139 hstem
          151 242 callgsubr
          vstem
          464 739 -38 callsubr
          19 -483 -94 callsubr
        </CharString>
        <CharString name="Agrave">
          92 callgsubr
          350 callsubr
          28 619 vstem
          386 723 83 callsubr
          -44 -467 -94 callsubr
        </CharString>
        <CharString name="Amacron">
          92 callgsubr
          93 83 hstem
          28 619 vstem
          505 850 316 callsubr
          -264 -511 -94 callsubr
        </CharString>
        <CharString name="Aogonek">
          93 -253 81 193 160 callgsubr
          hstem
          429 98 vstem
          237 256 rmoveto
          9 29 rlineto
          77 245 10 50 0 vvcurveto
          0 9 -50 77 -244 vhcurveto
          9 -30 rlineto
          -12 418 rmoveto
          -163 hlineto
          -229 -674 rlineto
          133 hlineto
          48 153 rlineto
          255 hlineto
          46 -148 rlineto
          -41 -35 -36 -48 -61 vvcurveto
          -62 40 -52 92 39 32 8 15 26 vhcurveto
          85 vlineto
          -14 -20 -28 -13 -32 hhcurveto
          -31 -20 15 29 47 57 47 59 34 hvcurveto
          endchar
        </CharString>
        <CharString name="Aring">
          92 callgsubr
          38 72 110 68 hstem
          216 72 106 72 vstem
          341 894 28 callgsubr
          -100 -456 -94 callsubr
        </CharString>
        <CharString name="Atilde">
          92 callgsubr
          73 87 -49 87 hstemhm
          28 619 hintmask 11110100
          462 877 115 callsubr
          hintmask 11101100
          -55 callsubr
          hintmask 11110100
          61 callgsubr
          -285 -570 -94 callsubr
        </CharString>
        <CharString name="B">
          18 0 103 186 101 181 103 hstemhm
          70 126 212 129 -112 129 hintmask 11110100
          196 103 rmoveto
          186 103 vlineto
          90 36 -39 -55 -60 -40 -32 -81 hvcurveto
          -108 468 rmoveto
          97 hlineto
          hintmask 11111000
          80 35 -35 -50 -52 -41 -44 -95 hvcurveto
          -76 hlineto
          -126 284 rmoveto
          -674 273 vlineto
          hintmask 11110100
          135 76 78 104 97 -60 48 -64 15 hvcurveto
          hintmask 11111000
          62 17 45 58 74 vvcurveto
          104 -79 79 -149 vhcurveto
          endchar
        </CharString>
        <CharString name="C">
          264 callsubr
          hstem
          43 135 vstem
          561 646 62 callsubr
        </CharString>
        <CharString name="CR">
          -574 endchar
        </CharString>
        <CharString name="Cacute">
          264 callsubr
          40 169 hstem
          43 135 vstem
          561 646 -80 callsubr
          -247 200 -37 callgsubr
          endchar
        </CharString>
        <CharString name="Ccaron">
          264 callsubr
          40 169 hstem
          43 135 vstem
          561 646 -80 callsubr
          -141 200 -81 callgsubr
          endchar
        </CharString>
        <CharString name="Ccedilla">
          35 -262 78 176 116 459 116 hstem
          43 135 171 90 vstem
          324 -51 rmoveto
          12 -18 13 -21 -27 vvcurveto
          -40 -27 -25 -52 -2 vhcurveto
          -78 vlineto
          116 1 53 63 74 vvcurveto
          25 -6 30 -12 18 vhcurveto
          140 697 62 callsubr
        </CharString>
        <CharString name="Ccircumflex">
          264 callsubr
          40 169 hstem
          43 135 vstem
          561 646 -80 callsubr
          -260 369 -81 callsubr
          endchar
        </CharString>
        <CharString name="Cdotaccent">
          264 callsubr
          57 139 hstem
          43 135 125 141 vstem
          303 810 rmoveto
          -40 30 -30 41 -73 callsubr
          vhcurveto
          258 -164 62 callsubr
        </CharString>
        <CharString name="D">
          101 0 105 463 106 hstem
          70 129 305 129 vstem
          199 105 99 callsubr
        </CharString>
        <CharString name="Dcaron">
          101 0 105 463 106 451 callsubr
          129 305 129 vstem
          368 723 -81 callgsubr
          -63 -618 99 callsubr
        </CharString>
        <CharString name="Dcroat">
          15 callsubr
        </CharString>
        <CharString name="Delta">
          83 0 103 478 93 hstem
          34 590 vstem
          168 103 rmoveto
          55 163 rlineto
          81 243 25 72 0 vvcurveto
          0 25 -72 80 -243 vhcurveto
          55 -163 rlineto
          -77 571 rmoveto
          -163 hlineto
          -215 -586 rlineto
          -88 590 88 vlineto
          endchar
        </CharString>
        <CharString name="E">
          91 callsubr
          hstem
          70 127 vstem
          197 103 -36 callsubr
        </CharString>
        <CharString name="Eacute">
          91 callsubr
          451 callsubr
          127 vstem
          448 892 45 callsubr
          -135 -620 -36 callsubr
        </CharString>
        <CharString name="Ebreve">
          91 callsubr
          45 79 hstemhm
          70 127 -104 470 callsubr
          hintmask 11111010
          369 892 rmoveto
          -57 -32 -37 -59 vhcurveto
          hintmask 11110110
          -59 -32 37 57 hvcurveto
          -94 hlineto
          -30 callsubr
          hintmask 11111010
          -266 -789 -36 callsubr
        </CharString>
        <CharString name="Ecaron">
          91 callsubr
          451 callsubr
          127 vstem
          329 723 -81 callgsubr
          -26 -437 rmoveto
          241 102 -241 183 271 103 -398 -674 402 103 -275 hlineto
          endchar
        </CharString>
        <CharString name="Ecircumflex">
          91 callsubr
          451 callsubr
          127 vstem
          273 822 -44 callgsubr
          5 -620 -36 callsubr
        </CharString>
        <CharString name="Edieresis">
          91 callsubr
          63 139 hstemhm
          70 127 -118 242 callgsubr
          hintmask 11111010
          392 737 rmoveto
          41 30 30 40 39 -30 30 -41 -40 -31 -30 -39 -40 31 -30 40 hvcurveto
          hintmask 11110110
          7 callsubr
          hintmask 11111010
          47 -634 -36 callsubr
        </CharString>
        <CharString name="Edotaccent">
          91 callsubr
          65 139 hstemhm
          70 127 11 141 vstemhm
          279 739 rmoveto
          -73 callsubr
          -40 30 -30 41 hvcurveto
          hintmask 11101000
          -82 -636 -36 callsubr
        </CharString>
        <CharString name="Egrave">
          91 callsubr
          451 callsubr
          127 vstem
          336 723 83 callsubr
          -38 -620 -36 callsubr
        </CharString>
        <CharString name="Emacron">
          91 callsubr
          95 83 hstem
          70 127 vstem
          433 852 316 callsubr
          -236 -666 -36 callsubr
        </CharString>
        <CharString name="Eng">
          114 -198 111 108 409 callgsubr
          218 callsubr
          492 674 rmoveto
          -281 vlineto
          -155 8 -83 0 vhcurveto
          0 -34 82 -91 156 vhcurveto
          -162 281 rlineto
          -143 453 callsubr
          281 hlineto
          146 -11 95 0 vhcurveto
          0 38 -94 88 -148 vhcurveto
          164 -280 rlineto
          17 -5 hlineto
          -57 -27 -25 -50 -29 -29 10 14 -22 vhcurveto
          -114 vlineto
          -14 25 44 -7 34 hhcurveto
          109 72 63 130 hvcurveto
          679 vlineto
          endchar
        </CharString>
        <CharString name="Eogonek">
          -46 -253 81 172 103 183 102 183 103 hstemhm
          70 127 27 98 hintmask 01111000
          472 hmoveto
          103 -275 183 241 102 -241 183 271 103 -398 -674 vlineto
          hintmask 11111100
          233 hlineto
          -43 -34 -36 -47 -58 13 callgsubr
          47 57 47 59 34 hvcurveto
          endchar
        </CharString>
        <CharString name="Eth">
          15 callsubr
        </CharString>
        <CharString name="Euro">
          36 -8 112 105 77 78 78 106 114 hstem
          125 127 vstem
          570 630 rmoveto
          21 -37 -42 11 -67 hhcurveto
          -130 -113 -78 -142 -40 hvcurveto
          -96 -78 82 hlineto
          -1 -14 -1 -14 -14 vvcurveto
          -12 0 -12 1 -12 vhcurveto
          -81 -77 95 hlineto
          -132 39 106 -85 141 hhcurveto
          74 36 13 18 34 hvcurveto
          121 vlineto
          -23 -32 -42 -17 -58 hhcurveto
          -74 -60 37 68 -30 hvcurveto
          189 77 -209 hlineto
          -1 11 -1 12 12 vvcurveto
          15 1 14 2 14 vhcurveto
          208 78 -187 hlineto
          68 31 59 38 77 hhcurveto
          57 39 -16 -23 31 hvcurveto
          endchar
        </CharString>
        <CharString name="F">
          -75 21 -21 269 103 199 103 hstem
          70 127 vstem
          465 571 rmoveto
          103 -395 -674 127 269 234 103 -234 199 vlineto
          endchar
        </CharString>
        <CharString name="G">
          167 callsubr
          315 callgsubr
          hintmask 11110100
          630 393 rmoveto
          hintmask 11111000
          -248 -108 hlineto
          hintmask 11110100
          9 callsubr
          hintmask 11111000
          -23 callgsubr
          hintmask 11110100
          127 callsubr
        </CharString>
        <CharString name="Gbreve">
          167 callsubr
          33 79 471 callgsubr
          11 94 99 216 -133 94 -53 124 hintmask 1111110100000000
          465 892 rmoveto
          -57 -32 -37 -59 -59 -32 37 57 vhcurveto
          -94 hlineto
          -30 callsubr
          hintmask 1111100010000000
          71 -499 rmoveto
          hintmask 1111101000000000
          -248 -108 hlineto
          hintmask 1111100010000000
          9 callsubr
          hintmask 1111101000000000
          -23 callgsubr
          hintmask 1111100010000000
          127 callsubr
        </CharString>
        <CharString name="Gcircumflex">
          167 callsubr
          37 169 315 callgsubr
          hintmask 11111010
          378 822 -44 callgsubr
          333 -330 rmoveto
          hintmask 11111100
          -248 -108 hlineto
          hintmask 11111010
          9 callsubr
          hintmask 11111100
          -23 callgsubr
          hintmask 11111010
          127 callsubr
        </CharString>
        <CharString name="Gdotaccent">
          167 callsubr
          53 139 471 callgsubr
          133 141 -70 216 -92 124 hintmask 11111101
          382 739 rmoveto
          -73 callsubr
          -40 30 -30 41 hvcurveto
          248 -346 rmoveto
          hintmask 11111010
          -248 -108 hlineto
          hintmask 11111101
          9 callsubr
          hintmask 11111010
          -23 callgsubr
          hintmask 11111101
          127 callsubr
        </CharString>
        <CharString name="H">
          96 21 -21 283 109 301 callgsubr
          277 127 vstem
          473 674 231 callsubr
        </CharString>
        <CharString name="Hbar">
          186 21 -21 283 109 110 72 hstem
          115 126 278 127 vstem
          519 392 rmoveto
          -278 110 278 hlineto
          201 72 rmoveto
          -74 100 -127 -100 -278 100 -126 -100 -74 -72 74 -502 126 283 278 -283 127 502 74 hlineto
          endchar
        </CharString>
        <CharString name="Hcircumflex">
          96 21 -21 283 109 331 169 301 callgsubr
          277 127 vstem
          335 822 -44 callgsubr
          219 -49 231 callsubr
        </CharString>
        <CharString name="I">
          -292 21 -21 hstem
          78 126 vstem
          78 hmoveto
          114 callsubr
          endchar
        </CharString>
        <CharString name="IJ">
          57 -1 111 hstem
          78 126 235 126 vstem
          78 hmoveto
          114 callsubr
          204 -654 59 callsubr
          endchar
        </CharString>
        <CharString name="Iacute">
          -292 366 callgsubr
          78 126 vstem
          78 hmoveto
          114 callsubr
          16 49 -37 callgsubr
          endchar
        </CharString>
        <CharString name="Ibreve">
          -292 21 -21 719 79 hstemhm
          -42 94 26 126 30 94 vstemhm
          -42 892 rmoveto
          -30 callsubr
          -94 hlineto
          -57 -32 -37 -59 -59 -32 37 57 vhcurveto
          hintmask 11010000
          26 420 callsubr
        </CharString>
        <CharString name="Icircumflex">
          -292 366 callgsubr
          78 126 vstem
          90 892 -81 callsubr
          -118 420 callsubr
        </CharString>
        <CharString name="Idieresis">
          -292 21 -21 738 139 hstemhm
          -46 141 -17 126 -8 142 hintmask 11010000
          78 hmoveto
          114 callsubr
          hintmask 11101000
          -124 134 -55 callgsubr
          endchar
        </CharString>
        <CharString name="Idotaccent">
          -292 21 -21 739 139 hstemhm
          72 141 -135 126 hintmask 11010000
          78 hmoveto
          114 callsubr
          hintmask 11100000
          -6 135 rmoveto
          -40 30 -30 41 -73 callsubr
          vhcurveto
          endchar
        </CharString>
        <CharString name="Igrave">
          -292 366 callgsubr
          78 126 vstem
          78 hmoveto
          114 callsubr
          18 218 42 callgsubr
          endchar
        </CharString>
        <CharString name="Imacron">
          -292 21 -21 766 83 hstem
          78 126 vstem
          78 hmoveto
          114 callsubr
          227 92 292 callsubr
          endchar
        </CharString>
        <CharString name="Iogonek">
          -292 -253 81 193 -21 hstemhm
          -10 98 -10 126 hintmask 11010000
          204 674 rmoveto
          -126 -667 hlineto
          hintmask 11100000
          -46 -35 -42 -49 -62 13 callgsubr
          hvcurveto
          hintmask 11010000
          422 callgsubr
        </CharString>
        <CharString name="Itilde">
          -292 21 -21 746 87 -49 87 hstemhm
          78 126 hintmask 11010000
          78 hmoveto
          114 callsubr
          182 202 115 callsubr
          hintmask 10110000
          -55 callsubr
          hintmask 11010000
          61 callgsubr
          endchar
        </CharString>
        <CharString name="J">
          -195 -1 111 hstem
          187 126 vstem
          30 20 59 callsubr
          endchar
        </CharString>
        <CharString name="Jcircumflex">
          -180 -1 111 613 169 hstem
          187 126 vstem
          30 20 59 callsubr
          169 758 -81 callsubr
          endchar
        </CharString>
        <CharString name="K">
          54 21 -21 301 callgsubr
          vstem
          70 hmoveto
          114 callsubr
          286 -338 259 callgsubr
        </CharString>
        <CharString name="L">
          -90 0 112 301 callgsubr
          vstem
          196 112 rmoveto
          562 264 callgsubr
          vlineto
          endchar
        </CharString>
        <CharString name="Lacute">
          -90 0 112 611 169 301 callgsubr
          vstem
          473 892 45 callsubr
          -161 -49 rmoveto
          264 callgsubr
          -263 hlineto
          endchar
        </CharString>
        <CharString name="Lcaron">
          -90 0 112 384 204 301 callgsubr
          vstem
          472 700 rmoveto
          -129 hlineto
          -76 -204 rlineto
          91 hlineto
          -162 178 rmoveto
          264 callgsubr
          -263 hlineto
          endchar
        </CharString>
        <CharString name="Ldot">
          -76 0 112 199 145 301 callgsubr
          93 146 vstem
          362 311 rmoveto
          42 31 32 41 39 -31 33 -42 -42 -31 -33 -39 -41 31 -32 42 hvcurveto
          -166 -199 rmoveto
          562 264 callgsubr
          vlineto
          endchar
        </CharString>
        <CharString name="Lslash">
          -35 0 112 hstem
          114 127 vstem
          241 112 rmoveto
          184 vlineto
          158 95 rlineto
          105 vlineto
          -158 -95 rlineto
          273 -127 -350 vlineto
          -75 -45 rlineto
          -105 vlineto
          75 45 rlineto
          -219 390 112 vlineto
          endchar
        </CharString>
        <CharString name="M">
          306 21 -21 499 175 hstem
          58 764 vstem
          58 hmoveto
          126 hlineto
          20 263 rlineto
          7 99 6 94 40 vvcurveto
          0 26 -85 53 -148 vhcurveto
          92 -253 rlineto
          86 hlineto
          94 253 rlineto
          50 133 36 103 0 vvcurveto
          0 6 -103 12 -133 vhcurveto
          24 -263 rlineto
          126 hlineto
          -66 674 rlineto
          -144 hlineto
          -94 -245 rlineto
          -55 -142 -31 -104 0 vvcurveto
          0 -31 106 -53 140 vhcurveto
          -92 245 rlineto
          -144 hlineto
          endchar
        </CharString>
        <CharString name="N">
          399 callsubr
          218 callsubr
          74 callgsubr
          endchar
        </CharString>
        <CharString name="NULL">
          -574 endchar
        </CharString>
        <CharString name="Nacute">
          399 callsubr
          49 169 218 callsubr
          311 723 -37 callgsubr
          -332 -892 rmoveto
          -65 callgsubr
          endchar
        </CharString>
        <CharString name="Ncaron">
          399 callsubr
          49 169 218 callsubr
          74 callgsubr
          336 49 -81 callgsubr
          endchar
        </CharString>
        <CharString name="Ntilde">
          399 callsubr
          73 87 -49 87 hstemhm
          70 126 296 127 hintmask 11101100
          74 callgsubr
          403 203 115 callsubr
          hintmask 11011100
          -55 callsubr
          hintmask 11101100
          61 callgsubr
          endchar
        </CharString>
        <CharString name="O">
          92 callsubr
          hstem
          43 135 367 135 vstem
          46 callgsubr
          endchar
        </CharString>
        <CharString name="OE">
          420 -7 116 -109 103 183 102 182 116 -115 103 471 callgsubr
          357 121 hintmask 10110110
          357 109 rmoveto
          -112 -67 88 142 142 65 89 113 115 64 -89 -142 -142 -64 -88 -114 hvcurveto
          hintmask 01101110
          299 -6 rmoveto
          183 248 102 -248 183 278 103 -399 vlineto
          hintmask 10110110
          -52 vlineto
          41 -48 -61 23 -70 hhcurveto
          -194 -119 -139 -208 -208 120 -138 194 69 61 24 41 48 hvcurveto
          hintmask 01101110
          -58 403 103 vlineto
          endchar
        </CharString>
        <CharString name="Oacute">
          69 callsubr
          316 723 -37 callgsubr
          -364 -553 -89 callsubr
          endchar
        </CharString>
        <CharString name="Obreve">
          92 callsubr
          33 79 471 callgsubr
          8 470 callsubr
          -11 135 hintmask 11111100
          186 892 rmoveto
          -30 callsubr
          -94 hlineto
          -57 -32 -37 -59 -59 -32 37 57 vhcurveto
          hintmask 11110010
          -102 -553 rmoveto
          142 70 89 113 115 69 -89 -142 -142 -69 -88 -114 -112 -72 88 142 vhcurveto
          -135 hmoveto
          -208 125 -138 194 194 124 139 207 209 -122 138 -197 -194 -124 -139 -208 vhcurveto
          endchar
        </CharString>
        <CharString name="Ocircumflex">
          69 callsubr
          178 339 rmoveto
          142 70 89 113 115 69 -89 -142 -142 -69 -88 -114 -112 -72 88 142 vhcurveto
          -135 hmoveto
          -208 125 -138 194 194 124 139 207 209 -122 138 -197 -194 -124 -139 -208 vhcurveto
          271 553 -81 callsubr
          endchar
        </CharString>
        <CharString name="Odieresis">
          92 callsubr
          53 139 471 callgsubr
          -2 242 callgsubr
          -15 135 hintmask 11101100
          176 809 -55 callgsubr
          hintmask 11110010
          -375 -470 -89 callsubr
          endchar
        </CharString>
        <CharString name="Ograve">
          69 callsubr
          46 callgsubr
          152 553 42 callgsubr
          endchar
        </CharString>
        <CharString name="Ohungarumlaut">
          69 callsubr
          414 723 31 callsubr
          -286 -553 -89 callsubr
          endchar
        </CharString>
        <CharString name="Omacron">
          92 callsubr
          80 83 hstem
          43 135 367 135 vstem
          525 766 292 callsubr
          -154 -427 -89 callsubr
          endchar
        </CharString>
        <CharString name="Oslash">
          125 -7 110 473 110 hstem
          39 130 377 130 vstem
          520 474 rmoveto
          17 -37 9 -45 -53 vvcurveto
          -145 -71 -91 -117 -36 -32 8 17 -26 vhcurveto
          -68 75 rmoveto
          -17 36 -10 46 54 vvcurveto
          146 72 91 116 37 33 -9 -17 27 vhcurveto
          223 135 rmoveto
          -123 hlineto
          -30 -41 rlineto
          27 -47 -56 15 -64 hhcurveto
          -194 -124 -139 -208 -99 28 -83 51 -60 hvcurveto
          -78 -105 rlineto
          123 hlineto
          31 42 rlineto
          -27 46 56 -14 62 hhcurveto
          195 123 139 207 99 -27 82 -50 60 hvcurveto
          endchar
        </CharString>
        <CharString name="Otilde">
          92 callsubr
          61 87 -49 87 471 callgsubr
          367 135 hintmask 11101100
          46 callgsubr
          307 538 115 callsubr
          hintmask 11011100
          -55 callsubr
          hintmask 11101100
          61 callgsubr
          endchar
        </CharString>
        <CharString name="P">
          -18 21 -21 229 102 240 103 301 callgsubr
          208 128 vstem
          196 331 rmoveto
          240 85 vlineto
          80 -2 43 -55 -61 vvcurveto
          -64 -42 -52 -77 -6 vhcurveto
          -215 343 rmoveto
          453 callsubr
          229 88 vlineto
          139 109 83 141 127 -97 94 -154 hvcurveto
          endchar
        </CharString>
        <CharString name="Q">
          155 -7 116 461 116 hstem
          43 135 367 135 vstem
          178 339 rmoveto
          142 70 89 113 115 69 -89 -142 -142 -69 -88 -114 -112 -72 88 142 vhcurveto
          539 -431 rmoveto
          -205 119 rlineto
          106 53 62 112 147 vvcurveto
          209 -122 138 -197 -194 -124 -139 -208 -208 125 -138 194 vhcurveto
          15 hlineto
          198 -140 rlineto
          endchar
        </CharString>
        <CharString name="R">
          15 21 -21 246 104 220 104 287 callsubr
          196 570 -4 callsubr
        </CharString>
        <CharString name="Racute">
          277 callsubr
          452 892 45 callsubr
          -140 -153 -4 callsubr
        </CharString>
        <CharString name="Rcaron">
          277 callsubr
          355 723 -81 callgsubr
          -53 -153 -4 callsubr
        </CharString>
        <CharString name="S">
          398 callgsubr
          hstem
          49 136 159 133 vstem
          445 646 -89 callgsubr
          endchar
        </CharString>
        <CharString name="Sacute">
          398 callgsubr
          44 169 hstem
          49 136 159 133 vstem
          219 723 -37 callgsubr
          135 -246 -89 callgsubr
          endchar
        </CharString>
        <CharString name="Scaron">
          398 callgsubr
          44 169 hstem
          49 136 159 133 vstem
          445 646 -89 callgsubr
          -127 199 -81 callgsubr
          endchar
        </CharString>
        <CharString name="Scircumflex">
          398 callgsubr
          44 169 hstem
          49 136 159 133 vstem
          445 646 -89 callgsubr
          -232 368 -81 callsubr
          endchar
        </CharString>
        <CharString name="T">
          -54 21 -21 570 104 370 callgsubr
          495 674 111 callsubr
        </CharString>
        <CharString name="Tbar">
          -54 21 -21 282 94 194 104 370 callgsubr
          495 570 rmoveto
          104 -469 -104 171 -194 -113 -94 113 -282 127 282 113 94 -113 194 vlineto
          endchar
        </CharString>
        <CharString name="Tcaron">
          -54 21 -21 570 104 49 169 370 callgsubr
          314 723 -81 callgsubr
          287 -49 111 callsubr
        </CharString>
        <CharString name="Thorn">
          -21 21 -21 115 102 239 103 301 callgsubr
          205 128 vstem
          196 217 rmoveto
          239 75 vlineto
          97 33 -60 -62 -64 -38 -53 -88 hvcurveto
          -79 342 rmoveto
          115 -126 453 callsubr
          115 85 vlineto
          142 106 82 141 127 -94 94 -157 hvcurveto
          endchar
        </CharString>
        <CharString name="U">
          428 callsubr
          hstem
          221 callsubr
          vstem
          467 258 -13 callsubr
        </CharString>
        <CharString name="Uacute">
          428 callsubr
          616 169 hstem
          221 callsubr
          vstem
          292 723 -37 callgsubr
          84 -634 -13 callsubr
        </CharString>
        <CharString name="Ubreve">
          428 callsubr
          612 79 hstemhm
          66 126 -49 470 callsubr
          -46 126 hintmask 11011000
          143 892 rmoveto
          -30 callsubr
          -94 hlineto
          -57 -32 -37 -59 -59 -32 37 57 vhcurveto
          hintmask 11100100
          230 -634 -13 callsubr
        </CharString>
        <CharString name="Ucircumflex">
          428 callsubr
          616 169 hstem
          221 callsubr
          vstem
          467 258 -83 callgsubr
          -191 218 -81 callsubr
          endchar
        </CharString>
        <CharString name="Udieresis">
          428 callsubr
          631 139 hstemhm
          66 126 -51 242 callgsubr
          -58 126 hintmask 11011000
          141 808 -55 callgsubr
          hintmask 11100100
          84 -550 -13 callsubr
        </CharString>
        <CharString name="Ugrave">
          428 callsubr
          616 169 hstem
          221 callsubr
          vstem
          467 258 -83 callgsubr
          -172 218 42 callgsubr
          endchar
        </CharString>
        <CharString name="Uhungarumlaut">
          428 callsubr
          616 169 hstem
          221 callsubr
          vstem
          467 258 -83 callgsubr
          -94 49 31 callsubr
          endchar
        </CharString>
        <CharString name="Umacron">
          428 callsubr
          659 83 hstem
          221 callsubr
          vstem
          467 258 -83 callgsubr
          33 92 292 callsubr
          endchar
        </CharString>
        <CharString name="Uogonek">
          85 -245 81 178 -21 hstem
          66 126 31 98 146 126 vstem
          467 674 rmoveto
          -416 vlineto
          -116 -60 -35 -78 -74 -63 36 110 vhcurveto
          421 -126 -422 vlineto
          -155 87 -88 132 -16 vhcurveto
          -35 -32 -27 -42 -50 13 callgsubr
          47 56 46 58 34 hvcurveto
          98 33 60 84 135 vvcurveto
          415 vlineto
          endchar
        </CharString>
        <CharString name="Uring">
          428 callsubr
          605 72 110 68 hstemhm
          66 126 15 72 106 72 10 126 vstemhm
          207 837 140 callgsubr
          hintmask 11110010
          188 -581 -13 callsubr
        </CharString>
        <CharString name="Utilde">
          428 callsubr
          639 87 -49 87 hstemhm
          221 callsubr
          hintmask 11011000
          467 258 -83 callgsubr
          -7 202 115 callsubr
          hintmask 10111000
          -55 callsubr
          hintmask 11011000
          61 callgsubr
          endchar
        </CharString>
        <CharString name="V">
          77 21 -21 hstem
          25 600 vstem
          625 674 rmoveto
          -135 hlineto
          -84 -268 rlineto
          -57 -180 -24 -112 0 vvcurveto
          0 -24 112 -56 180 vhcurveto
          -83 268 rlineto
          -137 hlineto
          226 -674 rlineto
          144 hlineto
          endchar
        </CharString>
        <CharString name="W">
          317 callsubr
          hstem
          25 908 vstem
          431 664 -90 callsubr
          endchar
        </CharString>
        <CharString name="Wacute">
          317 callsubr
          79 169 hstem
          25 908 vstem
          431 664 -90 callsubr
          -89 59 -37 callgsubr
          endchar
        </CharString>
        <CharString name="Wcircumflex">
          317 callsubr
          79 169 hstem
          25 908 vstem
          431 664 -90 callsubr
          -100 228 -81 callsubr
          endchar
        </CharString>
        <CharString name="Wdieresis">
          317 callsubr
          94 139 hstem
          291 242 callgsubr
          vstem
          431 664 -90 callsubr
          144 vmoveto
          -40 31 -30 40 41 30 30 40 39 -30 30 -41 -40 -31 -30 -39 vhcurveto
          -242 hmoveto
          -40 30 -30 41 -73 callsubr
          vhcurveto
          endchar
        </CharString>
        <CharString name="Wgrave">
          317 callsubr
          79 169 hstem
          25 908 vstem
          438 892 42 callgsubr
          -98 -59 -90 callsubr
          endchar
        </CharString>
        <CharString name="X">
          70 21 -21 hstem
          32 581 vstem
          246 341 rmoveto
          -214 -341 252 callsubr
          28 49 82 134 27 50 143 -233 rcurveline
          150 hlineto
          -221 341 204 333 rlineto
          -153 hlineto
          -25 -45 -76 -130 -24 -46 -129 221 rcurveline
          -147 hlineto
          endchar
        </CharString>
        <CharString name="Y">
          50 21 -21 hstem
          248 126 vstem
          606 674 -17 callgsubr
        </CharString>
        <CharString name="Yacute">
          261 callgsubr
          494 892 45 callsubr
          228 -49 -17 callgsubr
        </CharString>
        <CharString name="Ycircumflex">
          261 callgsubr
          312 822 -44 callgsubr
          375 -49 -17 callgsubr
        </CharString>
        <CharString name="Ydieresis">
          50 21 -21 738 139 hstemhm
          125 141 -18 126 -7 142 hintmask 11101000
          438 738 -38 callsubr
          410 -64 rmoveto
          -147 hlineto
          -46 -98 rlineto
          -94 -192 -9 -37 0 vvcurveto
          0 -12 37 -88 192 vhcurveto
          -45 98 rlineto
          -147 hlineto
          hintmask 11010000
          230 -428 rlineto
          -246 126 250 vlineto
          endchar
        </CharString>
        <CharString name="Ygrave">
          261 callgsubr
          369 723 83 callsubr
          338 -49 -17 callgsubr
        </CharString>
        <CharString name="Z">
          424 callgsubr
          hstem
          57 487 vstem
          531 674 44 callsubr
          endchar
        </CharString>
        <CharString name="Zacute">
          424 callgsubr
          350 callsubr
          57 487 vstem
          269 723 -37 callgsubr
          171 -218 44 callsubr
          endchar
        </CharString>
        <CharString name="Zcaron">
          424 callgsubr
          350 callsubr
          57 487 vstem
          531 674 44 callsubr
          -172 142 -81 callgsubr
          endchar
        </CharString>
        <CharString name="Zdotaccent">
          424 callgsubr
          65 139 hstem
          244 141 vstem
          531 674 44 callsubr
          -287 228 rmoveto
          -40 30 -30 41 -73 callsubr
          vhcurveto
          endchar
        </CharString>
        <CharString name="a">
          41 callsubr
          hstemhm
          40 125 159 124 hintmask 10111100
          324 218 -92 callsubr
          hintmask 01111100
          -33 callgsubr
        </CharString>
        <CharString name="aacute">
          104 callgsubr
          422 725 45 callsubr
          18 -338 -92 callsubr
          hintmask 01111110
          -33 callgsubr
        </CharString>
        <CharString name="abreve">
          41 callsubr
          35 79 hstemhm
          40 125 -96 94 161 124 -103 94 hintmask 1011101010000000
          345 724 rmoveto
          -57 -32 -37 -59 -59 -32 37 57 vhcurveto
          -94 hlineto
          -30 callsubr
          hintmask 1011110100000000
          -115 -506 -92 callsubr
          hintmask 0111100100000000
          -33 callgsubr
        </CharString>
        <CharString name="acircumflex">
          104 callgsubr
          255 655 -44 callgsubr
          150 -338 -92 callsubr
          hintmask 01111110
          -33 callgsubr
        </CharString>
        <CharString name="acute">
          369 callsubr
          127 217 vstem
          127 629 -37 callgsubr
          endchar
        </CharString>
        <CharString name="adieresis">
          41 callsubr
          54 139 hstemhm
          40 125 -97 242 callgsubr
          -128 124 hintmask 1011101100000000
          381 570 -38 callsubr
          hintmask 1011110010000000
          185 -352 -92 callsubr
          hintmask 0111100010000000
          -33 callgsubr
        </CharString>
        <CharString name="ae">
          238 -5 97 -96 90 119 90 -78 81 117 101 -98 94 hstemhm
          45 125 488 114 hintmask 01100111
          329 173 rmoveto
          -53 -34 -34 -51 -50 -24 24 39 vhcurveto
          hintmask 01010111
          42 36 26 66 vhcurveto
          57 hlineto
          hintmask 01100111
          329 78 rmoveto
          -212 hlineto
          84 12 51 39 53 hhcurveto
          62 31 -43 -66 3 hvcurveto
          107 -104 rmoveto
          3 19 4 33 18 vvcurveto
          159 -82 78 -131 -69 -61 -27 -50 -34 vhcurveto
          hintmask 01011011
          50 -22 -55 31 -78 hhcurveto
          -70 -56 -17 -18 -31 hvcurveto
          269 callsubr
          -89 63 -58 109 101 55 48 48 21 hvcurveto
          hintmask 10100111
          -66 40 83 -31 75 hhcurveto
          49 62 11 22 36 hvcurveto
          104 vlineto
          -24 -33 -46 -16 -55 hhcurveto
          -77 -61 39 74 -18 hvcurveto
          endchar
        </CharString>
        <CharString name="agrave">
          104 callgsubr
          313 556 83 callsubr
          112 -338 -92 callsubr
          hintmask 01111110
          -33 callgsubr
        </CharString>
        <CharString name="amacron">
          41 callsubr
          83 83 hstemhm
          40 125 159 124 hintmask 10111110
          418 682 316 callsubr
          -94 -381 -92 callsubr
          hintmask 01111110
          -33 callgsubr
        </CharString>
        <CharString name="ampersand">
          153 -8 102 -94 121 -121 288 -267 -21 588 101 hstemhm
          56 123 -52 123 170 122 -1 110 hintmask 1000110100000000
          286 274 rmoveto
          0 81 -78 77 -74 vhcurveto
          -19 -35 -40 -9 -41 hhcurveto
          -86 -63 36 55 42 25 31 73 25 hvcurveto
          hintmask 1000101100000000
          54 305 rmoveto
          57 32 -35 -52 -39 -22 -39 -72 -37 hvcurveto
          -44 45 -32 39 41 vvcurveto
          51 37 26 44 vhcurveto
          hintmask 0001110010000000
          393 -588 rmoveto
          hintmask 0100110010000000
          -20 18 -50 48 -56 55 rrcurveto
          hintmask 0010110010000000
          32 47 19 57 2 63 rrcurveto
          -110 hlineto
          -1 -35 -8 -31 -14 -25 -125 122 rcurveline
          hintmask 1000101100000000
          109 52 40 60 76 vvcurveto
          110 -81 72 -129 -117 -88 -64 -115 -62 36 -50 43 -46 vhcurveto
          hintmask 1000110100000000
          -106 -35 -44 -56 -80 vvcurveto
          -104 101 -85 171 77 65 20 35 52 vhcurveto
          hintmask 0001110010000000
          22 -21 18 -17 10 -9 rrcurveto
          endchar
        </CharString>
        <CharString name="aogonek">
          -70 -253 81 168 90 -65 -21 217 81 117 101 hstemhm
          40 125 69 98 -8 124 hintmask 11011101
          324 217 rmoveto
          -49 vlineto
          -47 -32 -35 -53 -50 -24 24 39 42 36 26 66 vhcurveto
          181 107 rmoveto
          128 -66 64 -140 -70 -63 -17 -18 -31 vhcurveto
          269 callsubr
          -84 58 -63 99 70 41 32 34 21 hvcurveto
          -50 vlineto
          hintmask 11011110
          -49 -34 -46 -51 -66 vvcurveto
          -62 39 -52 92 40 32 8 15 26 vhcurveto
          85 vlineto
          -14 -21 -27 -13 -32 hhcurveto
          -32 -19 15 29 hvcurveto
          hintmask 10111101
          47 56 47 60 34 vhcurveto
          endchar
        </CharString>
        <CharString name="approxequal">
          26 161 100 -45 100 47 100 -44 100 hstemhm
          32 533 hintmask 10011000
          487 317 429 callsubr
          55 -103 hhcurveto
          -66 -55 -48 -48 -35 hvcurveto
          77 -62 rlineto
          38 29 29 20 43 hhcurveto
          hintmask 10101000
          66 45 -55 93 hhcurveto
          72 48 47 47 31 hvcurveto
          -78 264 429 callsubr
          56 -103 hhcurveto
          -66 -55 -48 -49 -35 hvcurveto
          77 -62 rlineto
          38 29 29 21 43 hhcurveto
          hintmask 01101000
          66 45 -56 93 hhcurveto
          72 48 48 47 31 hvcurveto
          endchar
        </CharString>
        <CharString name="aring">
          41 callsubr
          29 72 110 68 hstemhm
          40 125 -32 72 106 72 -59 124 hintmask 1011110110000000
          258 727 28 callgsubr
          hintmask 1011011001000000
          66 -327 -92 callsubr
          hintmask 0111010101000000
          -33 callgsubr
        </CharString>
        <CharString name="asciicircum">
          -94 501 93 hstem
          38 404 vstem
          442 332 rmoveto
          -146 262 rlineto
          -111 hlineto
          -147 -262 rlineto
          113 hlineto
          89 169 88 -169 rlineto
          endchar
        </CharString>
        <CharString name="asciitilde">
          59 191 109 -51 109 hstemhm
          31 570 hintmask 10100000
          517 359 rmoveto
          -35 -27 -27 -24 -45 -65 -45 58 -111 hhcurveto
          hintmask 01100000
          -69 -60 -52 -52 -37 hvcurveto
          83 -67 rlineto
          41 32 29 21 47 70 48 -58 100 hhcurveto
          hintmask 10100000
          77 51 52 50 33 hvcurveto
          endchar
        </CharString>
        <CharString name="asterisk">
          -104 281 393 hstem
          186 98 vstem
          305 451 rmoveto
          13 15 2 5 17 hvcurveto
          92 30 -30 93 -93 -30 -18 -6 -14 -7 -11 -9 rlinecurve
          5 13 3 16 19 vvcurveto
          97 -98 -97 vlineto
          -19 3 -16 5 -13 vhcurveto
          -11 8 -14 8 -18 6 -92 30 rcurveline
          -31 -93 93 -30 rlineto
          -6 17 15 -2 13 hhcurveto
          3 hlineto
          -13 -9 -11 -11 -10 -13 -58 -79 rcurveline
          79 -57 58 79 11 15 7 13 4 13 rlinecurve
          4 -13 7 -14 10 -15 57 -78 rcurveline
          79 57 -57 79 -11 15 -12 11 -12 8 rlinecurve
          endchar
        </CharString>
        <CharString name="at">
          376 -198 99 107 89 -89 94 242 89 117 99 hstemhm
          48 108 102 108 205 93 -82 94.5 132.5 101 hintmask 1101111101000000
          458 97 rmoveto
          -50 -42 40 66 87 49 54 60 51 35 -35 -67 10 hvcurveto
          -1 -14 0 -14 -1 -15 rrcurveto
          -68 -17 -49 -34 -45 hhcurveto
          182 -151 rmoveto
          -31 -62 -70 -14 -60 hhcurveto
          -156 -136 103 192 190 145 164 203 168 137 -91 -195 hvcurveto
          hintmask 1011111101000000
          -100 -38 -62 -50 -36 -21 30 76 23 3 44 6 90 vhcurveto
          hintmask 1101111011000000
          7 65 rlineto
          -98 hlineto
          -1 -23 -1 -22 -2 -21 rrcurveto
          46 -26 -41 23 -52 hhcurveto
          -108 -93 -89 -135 -110 61 -91 108 66 55 35 66 30 hvcurveto
          hintmask 1011111011000000
          -52 16 39 -49 84 hhcurveto
          100 93 102 162 235 -188 142 -213 -252 -209 -195 -255 -216 143 -181 257 56 72 10 29 60 hvcurveto
          endchar
        </CharString>
        <CharString name="atilde">
          41 callsubr
          64 87 -49 87 -46 -20 hstemhm
          40 125 159 124 hintmask 1011100010000000
          377 710 115 callsubr
          hintmask 1011010010000000
          -55 callsubr
          hintmask 1011100010000000
          36 31 -38 56 hhcurveto
          hintmask 1011001110000000
          55 43 30 49 24 hvcurveto
          -117 -441 -92 callsubr
          hintmask 0111100010000000
          -33 callgsubr
        </CharString>
        <CharString name="b">
          21 362 callsubr
          hstemhm
          66 121 248 122 hintmask 10111000
          313 96 rmoveto
          -68 -58 52 110 111 68 43 57 66 57 -55 -106 -94 -55 -61 -67 hvcurveto
          -126 611 rmoveto
          -121 hlineto
          hintmask 01111000
          -707 121 vlineto
          hintmask 10111000
          78 vlineto
          -55 34 54 -30 65 hhcurveto
          139 78 124 136 163 -94 98 -124 -63 -54 -29 -55 -35 hvcurveto
          endchar
        </CharString>
        <CharString name="backslash">
          -133 -103 810 hstem
          -41 487 vstem
          85 707 410 callsubr
          362 -810 rlineto
          125 hlineto
          endchar
        </CharString>
        <CharString name="bar">
          -314 -194 889 hstem
          73 114 vstem
          73 -194 rmoveto
          114 889 -114 hlineto
          endchar
        </CharString>
        <CharString name="braceleft">
          354 callgsubr
          135 120 -104 119 hintmask 11101000
          342 704 rmoveto
          7 -20 -20 3 -19 hhcurveto
          hintmask 11110000
          -84 -64 -68 -100 hvcurveto
          hintmask 11101000
          -46 16 -41 -38 vvcurveto
          -51 -30 -50 -56 -3 vhcurveto
          -1 -11 -8 0 -3 hhcurveto
          -117 vlineto
          3 9 1 -1 10 hvcurveto
          58 -5 28 -49 -51 vvcurveto
          hintmask 11110000
          -39 -16 -40 -46 vvcurveto
          -100 64 -69 84 19 20 4 7 20 vhcurveto
          113 vlineto
          -6 -10 -12 -3 -10 hhcurveto
          -33 -22 26 36 hvcurveto
          hintmask 11101000
          38 15 44 49 vvcurveto
          80 -50 60 -68 10 vhcurveto
          68 10 50 58 80 vvcurveto
          hintmask 11110000
          50 -15 43 38 vvcurveto
          36 22 27 33 10 12 -3 -6 10 vhcurveto
          endchar
        </CharString>
        <CharString name="braceright">
          354 callgsubr
          93 119 -104 119 hintmask 11101000
          21 591 rmoveto
          6 10 11 3 10 hhcurveto
          33 23 -27 -36 hvcurveto
          hintmask 11110000
          -38 -15 -43 -50 vvcurveto
          -80 50 -58 68 -10 vhcurveto
          -68 -10 -50 -60 -80 vvcurveto
          hintmask 11101000
          -49 15 -44 -38 vvcurveto
          -36 -23 -26 -33 -10 -11 3 6 -10 vhcurveto
          -113 vlineto
          -7 20 19 -4 19 hhcurveto
          85 63 69 100 hvcurveto
          hintmask 11110000
          46 -15 40 39 vvcurveto
          51 28 49 58 5 vhcurveto
          1 10 9 -1 3 hhcurveto
          117 vlineto
          -3 -9 0 1 -10 hvcurveto
          -57 3 -29 50 51 vvcurveto
          hintmask 11101000
          38 15 41 46 vvcurveto
          100 -63 68 -85 -19 -19 -3 -7 -20 vhcurveto
          endchar
        </CharString>
        <CharString name="bracketleft">
          -231 -191 106 687 105 hstem
          70 115 vstem
          332 602 rmoveto
          105 -262 -898 262 106 -147 687 vlineto
          endchar
        </CharString>
        <CharString name="bracketright">
          -231 -191 106 687 105 hstem
          158 115 vstem
          273 707 rmoveto
          -262 -105 147 -687 -147 -106 262 hlineto
          endchar
        </CharString>
        <CharString name="breve">
          -104 625 79 hstem
          50 470 callsubr
          vstem
          50 798 rmoveto
          -30 callsubr
          -94 hlineto
          -57 -32 -37 -59 -59 -32 37 57 vhcurveto
          endchar
        </CharString>
        <CharString name="brokenbar">
          -314 -140 335 173 335 hstem
          73 114 vstem
          187 368 rmoveto
          335 -114 -335 vlineto
          114 -508 rmoveto
          335 -114 -335 vlineto
          endchar
        </CharString>
        <CharString name="bullet">
          -140 223 266 hstem
          85 265 vstem
          85 356 rmoveto
          -75 56 -58 77 74 58 58 75 75 -58 58 -75 -76 -56 -58 -75 vhcurveto
          endchar
        </CharString>
        <CharString name="c">
          367 callgsubr
          hstem
          38 123 vstem
          161 252 rmoveto
          99 callgsubr
          106 vlineto
          -63 callgsubr
          endchar
        </CharString>
        <CharString name="cacute">
          367 callgsubr
          40 169 hstem
          38 123 vstem
          246 555 -37 callgsubr
          -176 -472 rmoveto
          99 callgsubr
          106 vlineto
          -63 callgsubr
          endchar
        </CharString>
        <CharString name="caron">
          369 callsubr
          37 396 vstem
          288 629 -81 callgsubr
          endchar
        </CharString>
        <CharString name="ccaron">
          367 callgsubr
          41 169 hstem
          38 123 vstem
          432 487 rmoveto
          -63 callgsubr
          99 callgsubr
          -104 175 -81 callgsubr
          endchar
        </CharString>
        <CharString name="ccedilla">
          -104 -262 78 175 101 321 102 hstem
          38 123 107 90 vstem
          161 252 rmoveto
          99 callgsubr
          106 vlineto
          -63 callgsubr
          197 -376 6 callsubr
        </CharString>
        <CharString name="ccircumflex">
          367 callgsubr
          41 169 hstem
          38 123 vstem
          432 487 rmoveto
          -63 callgsubr
          99 callgsubr
          -215 344 -81 callsubr
          endchar
        </CharString>
        <CharString name="cdotaccent">
          367 callgsubr
          57 139 hstem
          38 123 60 141 vstem
          161 252 rmoveto
          99 callgsubr
          106 vlineto
          -63 callgsubr
          60 390 rmoveto
          -40 30 -30 41 -73 callsubr
          vhcurveto
          endchar
        </CharString>
        <CharString name="cedilla">
          -104 -262 78 hstem
          229 90 vstem
          319 -124 6 callsubr
        </CharString>
        <CharString name="cent">
          -106 -111 204 -97 97 -76 -21 416 206 hstemhm
          36 123 89 101 hintmask 00111100
          428 486 rmoveto
          -27 13 -27 8 -25 4 rrcurveto
          107 -101 -109 vlineto
          -135 -24 -76 -108 -1 -125 rrcurveto
          -132 84 -102 128 -22 vhcurveto
          hintmask 10011100
          -107 101 vlineto
          hintmask 00111100
          107 vlineto
          28 4 27 8 24 12 rrcurveto
          hintmask 01011100
          104 vlineto
          -20 -34 -40 -11 -37 hhcurveto
          -96 -59 65 94 -3 hvcurveto
          98 1 66 62 93 hhcurveto
          37 39 -10 -20 33 hvcurveto
          endchar
        </CharString>
        <CharString name="circumflex">
          369 callsubr
          37 396 vstem
          182 798 -81 callsubr
          endchar
        </CharString>
        <CharString name="colon">
          -307 0 153 174 154 hstem
          57 153 vstem
          57 404 rmoveto
          -43 33 -34 43 43 34 34 43 43 -34 34 -43 -43 -33 -34 -43 vhcurveto
          -328 vmoveto
          -43 33 -33 43 43 34 33 43 43 -34 34 -43 -43 -33 -34 -43 vhcurveto
          endchar
        </CharString>
        <CharString name="comma">
          -306 -126 247 hstem
          -7 237 vstem
          -7 -126 396 callsubr
        </CharString>
        <CharString name="commaaccent">
          -116 334 callsubr
          hstem
          130 205 vstem
          130 29 callsubr
          endchar
        </CharString>
        <CharString name="copyright">
          193 -8 84 86 80 189 82 84 86 hstem
          38 86 98 96 326 85 vstem
          38 337 rmoveto
          -190 156 -155 190 189 156 155 190 190 -156 156 -189 -190 -156 -156 -190 vhcurveto
          86 hmoveto
          147 112 113 148 147 113 -113 -147 -149 -113 -112 -147 -148 -112 112 149 vhcurveto
          194 -1 rmoveto
          62 1 44 33 48 hhcurveto
          26 30 -7 -15 23 hvcurveto
          83 vlineto
          16 -30 -32 5 -25 hhcurveto
          -113 -67 -78 -99 -1 hvcurveto
          -102 77 -72 100 32 35 7 14 24 vhcurveto
          84 vlineto
          -16 -23 -30 -9 -27 hhcurveto
          -51 -38 37 57 -3 hvcurveto
          endchar
        </CharString>
        <CharString name="currency">
          -13 93 95 247 95 hstem
          57 101 245 101 vstem
          57 310 rmoveto
          -43 12 -41 20 -33 vhcurveto
          -59 -57 72 -70 59 58 rlineto
          -20 34 40 -11 44 hhcurveto
          45 40 11 20 34 hvcurveto
          60 -58 72 70 -60 58 rlineto
          21 33 13 42 44 vvcurveto
          43 -12 40 -20 32 vhcurveto
          58 58 -72 69 -58 -56 rlineto
          19 -33 -41 12 -44 hhcurveto
          -46 -41 -12 -21 -34 hvcurveto
          -59 58 -72 -69 59 -59 rlineto
          -20 -32 -12 -42 -43 vvcurveto
          101 2 rmoveto
          67 51 56 72 72 50 -56 -68 -67 -50 -56 -72 -72 -51 56 68 vhcurveto
          endchar
        </CharString>
        <CharString name="d">
          20 362 callsubr
          397 callsubr
          hintmask 10111000
          110 callgsubr
          126 611 rmoveto
          -278 vlineto
          100 callgsubr
          hintmask 01111000
          -79 120 707 vlineto
          endchar
        </CharString>
        <CharString name="dagger">
          -28 21 -21 416 100 hstem
          217 108 vstem
          511 516 rmoveto
          -186 158 -108 -158 -182 -100 182 -416 108 416 186 hlineto
          endchar
        </CharString>
        <CharString name="daggerdbl">
          -7 21 -21 162 100 154 100 hstem
          228 108 vstem
          522 416 rmoveto
          100 -186 158 -108 -158 -183 -100 183 -154 -183 -100 183 -162 108 162 186 100 -186 154 vlineto
          endchar
        </CharString>
        <CharString name="dcaron">
          139 362 callsubr
          -10 204 397 callsubr
          hintmask 10101100
          110 callgsubr
          126 333 rmoveto
          100 callgsubr
          hintmask 01011100
          -79 120 707 -120 vlineto
          248 1 rmoveto
          -76 -204 rlineto
          90 hlineto
          115 204 rlineto
          endchar
        </CharString>
        <CharString name="dcroat">
          20 362 callsubr
          59 72 397 callsubr
          hintmask 10111100
          110 callgsubr
          309 549 rmoveto
          -63 62 -120 -62 -167 -72 167 -144 hlineto
          100 callgsubr
          hintmask 01111100
          -79 120 573 63 vlineto
          endchar
        </CharString>
        <CharString name="degree">
          -166 336 85 175 86 hstem
          30 87 173 88 vstem
          30 508 rmoveto
          -97 76 -75 97 97 78 76 97 98 -76 75 -98 -97 -77 -77 -97 vhcurveto
          87 1 rmoveto
          48 38 39 48 48 39 -39 -48 -48 -38 -40 -48 -48 -39 40 48 vhcurveto
          endchar
        </CharString>
        <CharString name="dieresis">
          -104 645 139 hstem
          43 242 callgsubr
          vstem
          43 715 -55 callgsubr
          endchar
        </CharString>
        <CharString name="divide">
          2 218 134 vstem
          218 517 323 callsubr
          -168 -231 rmoveto
          476 108 -476 hlineto
          168 -231 323 callsubr
          endchar
        </CharString>
        <CharString name="dollar">
          -64 -115 217 -107 107 -85 -21 573 218 hstemhm
          41 136 8 101 -52 102 0 133 hintmask 00110101
          437 646 rmoveto
          hintmask 00111010
          -31 15 -35 9 -35 5 rrcurveto
          112 -102 -110 vlineto
          -118 -13 -75 -71 -104 vvcurveto
          -108 76 -47 74 -34 vhcurveto
          hintmask 01010101
          78 -35 67 -22 -58 vvcurveto
          -52 -42 -31 -60 -64 -66 20 42 -58 vhcurveto
          -129 vlineto
          37 -21 50 -14 52 -5 rrcurveto
          hintmask 10010101
          -110 101 vlineto
          hintmask 00110101
          111 vlineto
          110 16 73 72 105 vvcurveto
          119 -90 46 -83 36 vhcurveto
          hintmask 00111101
          -64 29 -55 25 50 vvcurveto
          43 36 32 64 55 60 -18 -27 45 vhcurveto
          endchar
        </CharString>
        <CharString name="dotaccent">
          -104 646 139 hstem
          164 141 vstem
          164 716 rmoveto
          -40 30 -30 41 -73 callsubr
          vhcurveto
          endchar
        </CharString>
        <CharString name="dotlessi">
          428 callgsubr
          hstem
          70 120 vstem
          358 callsubr
          endchar
        </CharString>
        <CharString name="dvMatraAA_Candrabindu">
          -57 callgsubr
          75 468 callgsubr
          -8 126 hstemhm
          -73 114 38 117 -116 126 36 114 hintmask 1101011010000000
          143 735 rmoveto
          112 101 63 114 hvcurveto
          -114 hlineto
          hintmask 1110011010000000
          -52 -37 -39 -62 vhcurveto
          hintmask 1101011010000000
          -64 -38 142 callsubr
          93 -58 123 vhcurveto
          hintmask 1100110110000000
          -63 232 rmoveto
          -35 27 -28 35 36 28 28 35 35 -28 28 -36 -35 -27 -28 -35 vhcurveto
          -107 -402 rmoveto
          hintmask 1101011010000000
          106 -82 callsubr
          -329 hlineto
          endchar
        </CharString>
        <CharString name="dvMatraAI_Candrabindu">
          360 callgsubr
          -85 468 callgsubr
          -41 90 -57 126 hstemhm
          -123 114 38 127 36 114 hintmask 1001001110000000
          92 895 rmoveto
          hintmask 1000011110000000
          36 28 28 35 35 -28 28 -36 -35 -28 -28 -35 hvcurveto
          hintmask 1001001110000000
          -35 28 -28 35 vhcurveto
          hintmask 1100101110000000
          -548 -42 rmoveto
          2 callsubr
          -116 187 394 callgsubr
          hintmask 1001001110000000
          648 -41 rmoveto
          hintmask 1010001110000000
          -52 -38 -39 -61 vhcurveto
          hintmask 1001001110000000
          -64 -38 142 callsubr
          93 -58 123 112 101 63 114 vhcurveto
          endchar
        </CharString>
        <CharString name="dvMatraE_Candrabindu">
          -574 726 468 callgsubr
          -89 97 -16 126 hstemhm
          -129 114 38 126 37 113 hintmask 00101110
          123 callsubr
          hintmask 01001110
          505 -178 rmoveto
          112 101 63 114 hvcurveto
          -113 hlineto
          hintmask 10001110
          -52 -38 -39 -62 vhcurveto
          hintmask 01001110
          -63 -38 142 callsubr
          93 -58 122 vhcurveto
          hintmask 00011110
          -63 232 rmoveto
          -35 28 -28 35 35 28 28 35 35 -28 28 -35 -35 -28 -28 -35 vhcurveto
          endchar
        </CharString>
        <CharString name="dvSHA_MatraVocalicR">
          157 -250 91 724 95 -88 96 hstemhm
          90 117 140 116 -39 117 -4 118 hintmask 10111010
          277 572 rmoveto
          43 27 -36 -42 -44 -26 -35 -31 -22 hvcurveto
          -63 37 -20 36 37 vvcurveto
          40 27 29 43 vhcurveto
          hintmask 11001010
          378 -7 rmoveto
          103 95 -221 -358 hlineto
          -55 15 -47 14 -39 14 rrcurveto
          38 36 29 54 64 vvcurveto
          hintmask 10111010
          98 -78 71 -111 -114 -70 -77 -85 -68 33 -60 75 -51 vhcurveto
          -197 -116 93 -70 211 129 62 -26 77 -23 93 -22 rlinecurve
          -167 vlineto
          hintmask 11000100
          -71 -19 -42 -54 -60 vvcurveto
          -101 82 -48 105 48 43 11 14 30 vhcurveto
          92 vlineto
          -14 -25 -43 -12 -41 hhcurveto
          -52 -30 24 38 hvcurveto
          hintmask 11000010
          46 40 30 74 1 vhcurveto
          endchar
        </CharString>
        <CharString name="e">
          93 callsubr
          367 callsubr
          370 295 -100 callsubr
        </CharString>
        <CharString name="eacute">
          93 callsubr
          44 169 367 callsubr
          452 725 45 callsubr
          34 -261 -100 callsubr
        </CharString>
        <CharString name="ebreve">
          93 callsubr
          40 79 hstemhm
          87 470 callsubr
          -87 114 hintmask 11111100
          363 725 rmoveto
          -57 -32 -37 -59 -59 -32 37 57 vhcurveto
          -94 hlineto
          -30 callsubr
          hintmask 11111010
          -87 -430 -100 callsubr
        </CharString>
        <CharString name="ecaron">
          93 callsubr
          44 169 367 callsubr
          326 556 -81 callgsubr
          150 -261 -100 callsubr
        </CharString>
        <CharString name="ecircumflex">
          93 callsubr
          44 169 367 callsubr
          274 655 -44 callgsubr
          177 -261 -100 callsubr
        </CharString>
        <CharString name="edieresis">
          93 callsubr
          59 139 hstemhm
          91 242 callgsubr
          -105 114 hintmask 11111100
          404 571 -38 callsubr
          hintmask 11111010
          208 -276 -100 callsubr
        </CharString>
        <CharString name="edotaccent">
          93 callsubr
          60 139 hstemhm
          210 141 19 114 vstemhm
          281 572 rmoveto
          -73 callsubr
          -40 30 -30 41 hvcurveto
          hintmask 11100100
          89 -277 -100 callsubr
        </CharString>
        <CharString name="egrave">
          93 callsubr
          44 169 367 callsubr
          329 556 83 callsubr
          142 -261 -100 callsubr
        </CharString>
        <CharString name="eight">
          -33 -9 98 186 107 184 98 hstemhm
          41 121 -111 122 194 121 -109 121 hintmask 11110010
          269 89 rmoveto
          -76 -31 43 45 48 31 49 76 1 hvcurveto
          75 35 -44 -50 -46 -33 -46 -77 hvcurveto
          hintmask 11101100
          -1 477 rmoveto
          76 23 -44 -47 -62 -44 -31 -52 -53 -45 30 63 46 29 45 66 hvcurveto
          130 -235 rmoveto
          56 29 34 49 64 vvcurveto
          133 -101 58 -119 -117 -100 -66 -125 -66 36 -50 57 -29 vhcurveto
          hintmask 11110010
          -62 -27 -41 -51 -77 vvcurveto
          -113 93 -69 134 134 98 73 114 vhcurveto
          hintmask 11101100
          81 -41 48 -61 24 vhcurveto
          endchar
        </CharString>
        <CharString name="ellipsis">
          281 -8 155 hstem
          51 155 144 155 144 155 cntrmask 01110000
          51 70 rmoveto
          60 callsubr
          299 hmoveto
          60 callsubr
          299 hmoveto
          60 callsubr
          endchar
        </CharString>
        <CharString name="emacron">
          93 callsubr
          87 83 367 callsubr
          436 682 316 callsubr
          -66 -304 -100 callsubr
        </CharString>
        <CharString name="emdash">
          257 226 92 hstem
          50 731 vstem
          50 226 rmoveto
          731 92 -731 hlineto
          endchar
        </CharString>
        <CharString name="endash">
          -25 223 92 hstem
          50 450 vstem
          50 223 rmoveto
          450 92 -450 hlineto
          endchar
        </CharString>
        <CharString name="eng">
          -9 -197 96 122 -21 413 100 hstem
          65 120 200 121 vstem
          505 224 rmoveto
          113 vlineto
          113 -64 63 -100 -74 -55 -34 -59 -27 vhcurveto
          87 -120 -507 120 272 vlineto
          95 53 46 58 53 36 -33 -68 vhcurveto
          -344 vlineto
          -50 -21 -19 -32 -18 -21 6 9 -22 vhcurveto
          -95 vlineto
          -12 30 22 -4 24 hhcurveto
          104 55 65 98 hvcurveto
          258 vlineto
          endchar
        </CharString>
        <CharString name="eogonek">
          -45 -238 81 175 -21 208 90 123 94 hstem
          201 98 71 114 vstem
          370 295 rmoveto
          -213 hlineto
          83 12 49 40 54 hhcurveto
          65 30 -46 -62 3 hvcurveto
          61 -440 rmoveto
          185 callsubr
          44 50 44 55 33 hvcurveto
          18 5 17 7 13 8 rrcurveto
          104 vlineto
          -24 -33 -47 -16 -55 hhcurveto
          -81 -59 39 74 -18 hvcurveto
          318 hlineto
          3 19 4 34 19 vvcurveto
          158 -87 77 -128 -127 -104 -92 -167 -137 81 -103 141 -16 vhcurveto
          -34 -32 -25 -40 -49 vvcurveto
          -62 40 -52 92 39 32 8 15 27 vhcurveto
          endchar
        </CharString>
        <CharString name="equal">
          2 181 101 117 100 hstem
          50 476 vstem
          50 399 rmoveto
          476 100 -476 hlineto
          -318 vmoveto
          476 101 -476 hlineto
          endchar
        </CharString>
        <CharString name="eth">
          -32 -10 109 201 104 hstem
          36 124 215 120 vstem
          261 99 rmoveto
          -61 -40 38 59 67 39 37 59 50 38 -23 -34 29 hvcurveto
          -113 -9 -51 -31 -54 hhcurveto
          210 507 rmoveto
          73 vlineto
          -117 -58 -20 20 -21 18 -23 15 rlinecurve
          -161 hlineto
          47 -29 44 -33 37 -39 -98 -49 rcurveline
          -74 vlineto
          141 71 36 -51 26 -57 10 -65 rlinecurve
          34 -34 -48 22 -59 hhcurveto
          -109 -86 -76 -125 -112 82 -101 144 151 82 114 178 101 -37 104 -61 82 hvcurveto
          endchar
        </CharString>
        <CharString name="exclam">
          -8 464 callsubr
          hintmask 10100000
          80 224 rmoveto
          115 450 -115 hlineto
          hintmask 11000000
          -23 -603 299 callgsubr
        </CharString>
        <CharString name="exclamdown">
          359 464 callsubr
          hintmask 11000000
          57 438 rmoveto
          -44 34 -35 45 44 35 35 44 45 -35 34 -44 -45 -34 -34 -45 vhcurveto
          hintmask 10100000
          23 -603 rmoveto
          115 450 -115 hlineto
          endchar
        </CharString>
        <CharString name="f">
          -234 281 callsubr
          vstem
          347 709 rmoveto
          7 -22 -23 2 -21 hhcurveto
          -111 131 callgsubr
          101 90 -101 29 275 callgsubr
        </CharString>
        <CharString name="ff">
          40 238 callsubr
          119 vstem
          442 callsubr
          29 hlineto
          201 callsubr
          242 172 rmoveto
          7 -22 -23 2 -21 hhcurveto
          -47 -39 -12 -23 -29 hvcurveto
          17 -36 -64 18 -56 hhcurveto
          -114 131 callgsubr
          155 -417 119 417 102 90 -102 29 275 callgsubr
        </CharString>
        <CharString name="ffi">
          326 238 callsubr
          119 155 120 vstem
          442 callsubr
          29 hlineto
          201 callsubr
          394 -30 rmoveto
          -275 29 hlineto
          63 29 19 46 55 51 -18 -22 48 vhcurveto
          101 vlineto
          22 -48 -57 17 -65 hhcurveto
          -48 -40 -12 -23 -29 hvcurveto
          17 -36 -64 18 -56 hhcurveto
          -114 131 callgsubr
          155 -417 119 417 155 -417 120 vlineto
          endchar
        </CharString>
        <CharString name="ffl">
          262 209 callgsubr
          -58 -20 hstemhm
          104 120 155 120 152 120 hintmask 11011110
          442 callsubr
          hlineto
          hintmask 11101110
          29 vlineto
          201 callsubr
          -275 -30 rmoveto
          -74 -90 74 -417 120 417 155 -417 120 417 101 90 -101 29 hlineto
          416 callgsubr
          120 vlineto
          hintmask 11011110
          660 vlineto
          hintmask 11101110
          33 -65 -66 25 -83 hhcurveto
          -48 -39 -12 -23 -30 hvcurveto
          17 -36 -64 18 -56 hhcurveto
          -114 -66 -68 -113 hvcurveto
          endchar
        </CharString>
        <CharString name="fi">
          -22 238 callsubr
          120 vstem
          499 507 rmoveto
          -275 29 hlineto
          63 28 19 46 56 51 -18 -22 47 vhcurveto
          101 vlineto
          22 -47 -57 17 -65 hhcurveto
          -113 131 callgsubr
          155 -417 120 vlineto
          endchar
        </CharString>
        <CharString name="five">
          -70 460 callsubr
          74 118 152 124 vstem
          192 58 callgsubr
        </CharString>
        <CharString name="fl">
          -12 209 callgsubr
          -58 -20 hstemhm
          104 120 152 121 hintmask 11011100
          104 507 rmoveto
          -74 -90 74 -417 120 417 101 90 -101 hlineto
          hintmask 11101100
          29 vlineto
          416 callgsubr
          121 vlineto
          hintmask 11011100
          660 vlineto
          hintmask 11101100
          33 -66 -66 25 -83 hhcurveto
          -112 -66 -67 -114 hvcurveto
          endchar
        </CharString>
        <CharString name="florin">
          -101 -256 99 447 90 200 100 -10 -20 hstemhm
          -44 506 hintmask 11011000
          180 380 rmoveto
          -106 -90 91 hlineto
          -55 -337 rlineto
          -70 -11 -22 -40 -53 hhcurveto
          -25 -23 5 9 -20 hvcurveto
          -100 vlineto
          -8 19 35 -5 32 hhcurveto
          111 58 81 119 19 hvcurveto
          56 346 rlineto
          111 90 -97 hlineto
          15 91 rlineto
          hintmask 11101000
          70 11 26 39 53 hhcurveto
          18 22 -4 -6 17 hvcurveto
          hintmask 11011000
          100 vlineto
          8 -23 -32 2 -23 hhcurveto
          -112 -57 -81 -119 -19 hvcurveto
          endchar
        </CharString>
        <CharString name="four">
          -20 21 -21 147 103 329 76 hstem
          326 120 vstem
          154 141 callgsubr
        </CharString>
        <CharString name="foursuperior">
          -176 487 71 210 57 hstem
          226 82 vstem
          115 558 rmoveto
          111 210 rlineto
          -210 vlineto
          139 hmoveto
          -57 267 -129 hlineto
          -144 -267 rlineto
          -71 191 -94 82 94 57 vlineto
          endchar
        </CharString>
        <CharString name="fraction">
          -292 214 284 hstem
          11 220 vstem
          231 379 callsubr
        </CharString>
        <CharString name="g">
          182 callsubr
          357 callsubr
          277 114 -85 callsubr
        </CharString>
        <CharString name="gbreve">
          182 callsubr
          39 79 hstemhm
          42 125 -48 94 179 120 -117 94 hintmask 11110101
          395 725 rmoveto
          -57 -32 -37 -59 -59 -32 37 57 vhcurveto
          -94 hlineto
          -30 callsubr
          hintmask 11111010
          -212 -611 -85 callsubr
        </CharString>
        <CharString name="gcircumflex">
          182 callsubr
          43 169 357 callsubr
          297 655 -44 callgsubr
          61 -442 -85 callsubr
        </CharString>
        <CharString name="gdotaccent">
          182 callsubr
          59 139 hstemhm
          42 125 77 141 7 120 hintmask 11111100
          315 572 rmoveto
          -73 callsubr
          -40 30 -30 41 hvcurveto
          hintmask 11111010
          -38 -458 -85 callsubr
        </CharString>
        <CharString name="germandbls">
          2 -8 97 -68 -21 583 107 hstemhm
          66 118 108 125 -59 122 -41 114 hintmask 10110010
          272 11 rmoveto
          -15 26 45 -4 34 hhcurveto
          109 67 65 94 hvcurveto
          hintmask 01110100
          139 -136 25 48 44 63 25 94 vvcurveto
          86 -77 78 -125 -133 -79 -75 -141 vhcurveto
          -474 118 481 vlineto
          72 35 30 63 49 27 -26 -40 vhcurveto
          hintmask 10111010
          -62 -66 -28 -76 vvcurveto
          hintmask 10110010
          -105 147 -17 -81 vvcurveto
          -37 -30 -22 -42 -35 -25 6 22 -35 vhcurveto
          endchar
        </CharString>
        <CharString name="grave">
          369 callsubr
          127 217 vstem
          253 798 42 callgsubr
          endchar
        </CharString>
        <CharString name="greater">
          -9 101 479 hstem
          47 469 vstem
          516 398 rmoveto
          -469 182 rlineto
          -121 vlineto
          0 319 -105 28 -13 vhcurveto
          -29 -14 -318 -106 0 vvcurveto
          -120 vlineto
          469 182 rlineto
          endchar
        </CharString>
        <CharString name="greaterequal">
          -3 97 98 hstem
          457 69 vstem
          50 97 rmoveto
          476 98 -476 hlineto
          386 vmoveto
          -106 vlineto
          407 -62 -407 -62 rlineto
          -106 vlineto
          476 91 rlineto
          155 vlineto
          endchar
        </CharString>
        <CharString name="guillemotleft">
          -25 91 324 hstem
          26 486 vstem
          305 415 129 callgsubr
          353 162 129 callgsubr
          endchar
        </CharString>
        <CharString name="guillemotright">
          -24 91 324 hstem
          37 485 vstem
          164 415 202 callsubr
          151 162 rlineto
          56 162 202 callsubr
          151 162 rlineto
          endchar
        </CharString>
        <CharString name="guilsinglleft">
          -230 91 324 hstem
          27 279 vstem
          306 415 129 callgsubr
          endchar
        </CharString>
        <CharString name="guilsinglright">
          -231 91 324 hstem
          38 279 vstem
          165 415 202 callsubr
          152 162 rlineto
          endchar
        </CharString>
        <CharString name="h">
          -9 320 callgsubr
          286 callsubr
          185 707 rmoveto
          -120 -707 43 callsubr
        </CharString>
        <CharString name="hbar">
          -9 320 callgsubr
          60 72 286 callsubr
          185 573 rmoveto
          165 72 -165 62 -120 -62 -63 -72 63 -573 43 callsubr
        </CharString>
        <CharString name="hcircumflex">
          -9 320 callgsubr
          243 169 286 callsubr
          208 756 rmoveto
          117 hlineto
          -145 169 rlineto
          -106 hlineto
          -145 -169 rlineto
          117 hlineto
          81 99 rlineto
          58 -148 rmoveto
          -120 -707 43 callsubr
        </CharString>
        <CharString name="hungarumlaut">
          369 callsubr
          36 398 vstem
          211 629 31 callsubr
          endchar
        </CharString>
        <CharString name="hyphen">
          274 callgsubr
        </CharString>
        <CharString name="i">
          428 callgsubr
          586 145 hstemhm
          58 144 -132 120 307 callsubr
          hintmask 11100000
          -12 152 rmoveto
          -41 32 -32 40 282 callgsubr
          vhcurveto
          endchar
        </CharString>
        <CharString name="iacute">
          428 callgsubr
          556 169 hstem
          70 120 vstem
          358 callsubr
          16 49 -37 callgsubr
          endchar
        </CharString>
        <CharString name="ibreve">
          428 callgsubr
          552 79 hstem
          -55 94 31 120 31 94 vstem
          -55 725 rmoveto
          -30 callsubr
          -94 hlineto
          -57 -32 -37 -59 -59 -32 37 57 vhcurveto
          31 421 callgsubr
        </CharString>
        <CharString name="icircumflex">
          428 callgsubr
          556 169 hstem
          70 120 vstem
          78 725 -81 callsubr
          -114 421 callgsubr
        </CharString>
        <CharString name="idieresis">
          428 callgsubr
          572 139 hstemhm
          -61 141 -10 120 -9 142 307 callsubr
          hintmask 11101000
          -131 135 -55 callgsubr
          endchar
        </CharString>
        <CharString name="igrave">
          428 callgsubr
          556 169 hstem
          70 120 vstem
          358 callsubr
          11 218 42 callgsubr
          endchar
        </CharString>
        <CharString name="ij">
          -70 -197 96 122 -21 586 145 hstemhm
          57 144 -132 120 117 145 -132 120 hintmask 11101010
          69 hmoveto
          444 callsubr
          hintmask 11110010
          -12 152 rmoveto
          -41 32 -32 40 282 callgsubr
          vhcurveto
          148 -840 16 callsubr
          hintmask 11101100
          260 callgsubr
        </CharString>
        <CharString name="imacron">
          428 callgsubr
          599 83 hstem
          70 120 vstem
          358 callsubr
          224 92 292 callsubr
          endchar
        </CharString>
        <CharString name="infinity">
          258 171 94 -92 95 151 95 -92 94 hstemhm
          47 106 524 108 hintmask 10101100
          153 343 rmoveto
          46 30 30 52 47 37 -39 -35 31 vhcurveto
          -34 -23 -38 -46 -54 hhcurveto
          -51 -31 32 46 hvcurveto
          262 -70 rmoveto
          hintmask 01011100
          -55 47 54 -45 85 hhcurveto
          112 72 72 103 103 -65 65 -115 -92 -58 -55 -48 -39 hvcurveto
          hintmask 10101100
          55 -48 -53 46 -84 hhcurveto
          -113 -71 -71 -103 -105 63 -64 117 95 53 55 47 40 hvcurveto
          hintmask 01011100
          262 72 rmoveto
          -49 -28 -28 -52 -47 -35 36 37 -34 vhcurveto
          34 24 36 47 57 hhcurveto
          51 28 -35 -42 hvcurveto
          endchar
        </CharString>
        <CharString name="iogonek">
          -314 -253 81 193 -21 586 145 hstemhm
          -24 98 -16 144 -132 120 hintmask 11101000
          130 586 rmoveto
          282 callgsubr
          -41 32 -32 40 hvcurveto
          hintmask 11100100
          60 -79 rmoveto
          -120 -496 hlineto
          hintmask 11110000
          -49 -34 -45 -51 -65 13 callgsubr
          hvcurveto
          hintmask 11100100
          422 callgsubr
        </CharString>
        <CharString name="itfLogo">
          1134 21 -21 233 193 41 193 hstem
          147 204 42 204 42 203 42 204 42 204 41 204 vstem
          147 hmoveto
          204 660 -204 hlineto
          246 341 callsubr
          246 -660 rmoveto
          203 660 -203 hlineto
          245 341 callsubr
          246 -660 rmoveto
          204 660 -204 hlineto
          245 341 callsubr
          -427 vmoveto
          204 193 -204 hlineto
          endchar
        </CharString>
        <CharString name="itfStar">
          74 60 656 hstem
          -10 690 vstem
          680 466 rmoveto
          -30 -209 -6 -3 -36 hvcurveto
          -69 259 -9 -28 -55 -198 -9 -33 rlinecurve
          -273 9 26 -16 176 -113 29 -18 rlinecurve
          -100 -259 25 21 159 134 31 22 rlinecurve
          214 -177 -11 30 -75 198 -13 31 rlinecurve
          endchar
        </CharString>
        <CharString name="itilde">
          428 callgsubr
          578 87 -49 87 hstemhm
          70 120 307 callsubr
          182 201 115 callsubr
          hintmask 10110000
          -55 callsubr
          hintmask 11010000
          61 callgsubr
          endchar
        </CharString>
        <CharString name="j">
          -317 -197 96 687 145 hstemhm
          59 145 -132 120 hintmask 11010000
          -42 -181 16 callsubr
          hintmask 11100000
          260 callgsubr
        </CharString>
        <CharString name="jcircumflex">
          -317 -197 96 657 169 hstem
          72 120 vstem
          80 725 -81 callsubr
          -228 -906 16 callsubr
          endchar
        </CharString>
        <CharString name="k">
          -52 21 -21 hstem
          65 120 vstem
          508 hmoveto
          -190 265 199 callsubr
          endchar
        </CharString>
        <CharString name="kgreenlandic">
          -52 21 -21 hstem
          65 120 vstem
          508 hmoveto
          -190 265 186 242 rlineto
          -140 hlineto
          -179 -238 rlineto
          238 -120 -507 463 callgsubr
          endchar
        </CharString>
        <CharString name="l">
          428 callgsubr
          135 callgsubr
          707 -120 hlineto
          endchar
        </CharString>
        <CharString name="lacute">
          428 callgsubr
          756 169 hstem
          70 120 vstem
          78 756 -37 callgsubr
          -99 -925 rmoveto
          120 707 -120 hlineto
          endchar
        </CharString>
        <CharString name="lcaron">
          -305 21 -21 505 203 135 callgsubr
          707 -120 hlineto
          182 -202 rmoveto
          90 hlineto
          114 203 rlineto
          -128 hlineto
          endchar
        </CharString>
        <CharString name="ldot">
          -118 21 -21 295 144 hstem
          65 120 96 147 vstem
          65 hmoveto
          120 707 -120 hlineto
          216 -340 rmoveto
          -40 31 -32 43 41 32 32 40 40 -32 32 -41 -43 -31 -32 -40 vhcurveto
          endchar
        </CharString>
        <CharString name="less">
          -9 101 479 hstem
          50 469 vstem
          50 283 rmoveto
          469 -182 rlineto
          120 vlineto
          0 -319 106 -29 14 vhcurveto
          28 13 320 105 0 vvcurveto
          121 vlineto
          -469 -182 rlineto
          endchar
        </CharString>
        <CharString name="lessequal">
          -3 97 98 hstem
          45 69 vstem
          45 97 rmoveto
          476 98 -476 hlineto
          476 386 rmoveto
          -476 -90 rlineto
          -155 vlineto
          476 -91 rlineto
          106 vlineto
          -407 62 407 62 rlineto
          endchar
        </CharString>
        <CharString name="logicalnot">
          9 317 99 hstem
          438 103 vstem
          541 145 rmoveto
          271 -503 -99 400 -172 vlineto
          endchar
        </CharString>
        <CharString name="longs">
          -293 21 -21 670 99 hstem
          68 120 vstem
          311 761 rmoveto
          7 -22 -23 1 -21 hhcurveto
          -111 -66 -67 -114 hvcurveto
          -588 120 588 275 callgsubr
        </CharString>
        <CharString name="lozenge">
          15 21 -21 579 95 hstem
          38 513 vstem
          395 279 rmoveto
          -72 -122 -29 -62 0 vvcurveto
          0 -29 62 -70 122 vhcurveto
          -32 58 32 58 rlineto
          70 122 29 62 0 vvcurveto
          0 29 -62 72 -122 vhcurveto
          33 -58 rlineto
          -70 337 rmoveto
          -130 hlineto
          -190 -337 190 -337 rlineto
          130 hlineto
          193 337 rlineto
          endchar
        </CharString>
        <CharString name="lslash">
          -252 21 -21 hstem
          102 120 vstem
          305 523 rmoveto
          -83 -57 rlineto
          241 -120 -324 vlineto
          -74 -51 rlineto
          -105 vlineto
          74 51 rlineto
          -278 120 361 vlineto
          83 57 rlineto
          endchar
        </CharString>
        <CharString name="m">
          269 320 callgsubr
          hstem
          65 120 179 121 178 121 vstem
          185 507 rmoveto
          -120 -507 120 272 hlineto
          108 58 33 43 52 26 -38 -64 vhcurveto
          -311 121 272 vlineto
          108 58 33 42 52 26 -38 -64 vhcurveto
          -311 121 334 vlineto
          114 -58 65 -103 -68 -56 -35 -61 -27 vhcurveto
          62 -21 -50 34 -73 hhcurveto
          -65 -51 -32 -54 -27 hvcurveto
          endchar
        </CharString>
        <CharString name="macron">
          279 callgsubr
        </CharString>
        <CharString name="minus">
          2 286 107 hstem
          50 476 vstem
          50 286 rmoveto
          476 107 -476 hlineto
          endchar
        </CharString>
        <CharString name="multiply">
          -59 133 415 hstem
          48 417 vstem
          465 469 rmoveto
          -79 78 -130 -130 -131 131 -77 -77 131 -131 -128 -128 78 -78 129 128 130 -129 77 76 -130 130 rlineto
          endchar
        </CharString>
        <CharString name="n">
          -9 320 callgsubr
          286 callsubr
          185 507 -39 callsubr
        </CharString>
        <CharString name="nacute">
          -9 320 callgsubr
          43 169 286 callsubr
          478 725 45 callsubr
          -177 -49 -39 callsubr
        </CharString>
        <CharString name="napostrophe">
          59 320 callgsubr
          -27 208 hstemhm
          134 120 200 120 hintmask 10111000
          59 694 rmoveto
          -80 -208 rlineto
          86 hlineto
          110 208 rlineto
          79 -187 rmoveto
          -120 -507 120 272 hlineto
          hintmask 11011000
          95 53 46 58 53 36 -33 -68 vhcurveto
          -312 120 337 vlineto
          113 -64 63 -100 -74 -55 -34 -59 -27 vhcurveto
          endchar
        </CharString>
        <CharString name="ncaron">
          -9 320 callgsubr
          43 169 286 callsubr
          348 556 -81 callgsubr
          -57 -49 -39 callsubr
        </CharString>
        <CharString name="nine">
          -52 439 callsubr
          26 124 214 120 vstem
          253 330 rmoveto
          -63 -40 44 68 70 40 42 61 66 42 -58 -113 5 hvcurveto
          -33 -26 -33 -20 -52 hhcurveto
          -187 -319 rmoveto
          -11 30 42 -8 45 hhcurveto
          185 116 123 243 179 -82 126 -157 -139 -80 -100 -123 -130 86 -80 111 64 43 17 33 30 hvcurveto
          -118 -16 -59 -60 -113 hhcurveto
          -37 -41 11 13 -28 hvcurveto
          endchar
        </CharString>
        <CharString name="notequal">
          2 181 98 123 97 hstem
          50 476 vstem
          526 402 rmoveto
          97 -131 vlineto
          38 83 rlineto
          -67 hlineto
          -38 -83 rlineto
          -278 -97 233 hlineto
          -57 -123 rlineto
          -176 -98 130 hlineto
          -38 -83 rlineto
          68 hlineto
          38 83 rlineto
          278 98 -233 hlineto
          57 123 rlineto
          endchar
        </CharString>
        <CharString name="ntilde">
          -9 320 callgsubr
          67 87 -49 87 -46 -20 hstemhm
          65 120 200 120 hintmask 11100110
          410 710 115 callsubr
          hintmask 11010110
          -55 callsubr
          hintmask 11100110
          36 31 -38 56 hhcurveto
          hintmask 11001110
          55 43 30 49 24 hvcurveto
          -289 -152 -39 callsubr
        </CharString>
        <CharString name="numbersign">
          165 21 -21 160 93 162 96 hstem
          48 643 vstem
          428 253 rmoveto
          -153 hlineto
          34 162 rlineto
          153 hlineto
          229 hmoveto
          96 -105 vlineto
          34 162 rlineto
          -103 hlineto
          -34 -162 rlineto
          -153 hlineto
          34 162 rlineto
          -104 hlineto
          -34 -162 rlineto
          -136 -96 116 hlineto
          -35 -162 rlineto
          -123 -93 104 hlineto
          -34 -160 rlineto
          103 hlineto
          34 160 rlineto
          153 hlineto
          -34 -160 rlineto
          104 hlineto
          34 160 rlineto
          138 93 -119 hlineto
          35 162 rlineto
          endchar
        </CharString>
        <CharString name="o">
          223 callgsubr
          287 callgsubr
          81 callgsubr
          endchar
        </CharString>
        <CharString name="oacute">
          165 callgsubr
          244 556 -37 callgsubr
          -53 -733 -83 callsubr
          endchar
        </CharString>
        <CharString name="obreve">
          223 callgsubr
          37 79 hstemhm
          38 126 -59 470 callsubr
          -73 125 hintmask 11101100
          105 725 rmoveto
          -30 callsubr
          -94 hlineto
          -57 -32 -37 -59 -59 -32 37 57 vhcurveto
          hintmask 11110010
          83 -308 rmoveto
          88 32 -77 -89 -89 -37 -74 -82 -79 -40 76 88 89 38 76 80 hvcurveto
          -425 vmoveto
          159 86 115 148 144 -83 116 -162 -150 -94 -116 -151 -143 85 -113 159 hvcurveto
          endchar
        </CharString>
        <CharString name="ocircumflex">
          223 callgsubr
          40 312 callgsubr
          282 417 rmoveto
          88 32 -77 -89 -89 -37 -74 -82 -79 -40 76 88 89 38 76 80 hvcurveto
          -425 vmoveto
          159 86 115 148 144 -83 116 -162 -150 -94 -116 -151 -143 85 -113 159 hvcurveto
          -49 732 -81 callsubr
          endchar
        </CharString>
        <CharString name="odieresis">
          223 callgsubr
          56 139 hstemhm
          38 126 -63 242 callgsubr
          -83 125 hintmask 11101100
          101 641 -55 callgsubr
          hintmask 11110010
          -61 -649 -83 callsubr
          endchar
        </CharString>
        <CharString name="oe">
          310 -8 96 -93 97 113 90 122 98 -97 94 hstemhm
          38 126 566 114 hintmask 10110110
          730 295 rmoveto
          -212 hlineto
          hintmask 10101110
          85 12 51 38 53 hhcurveto
          60 32 -40 -62 4 hvcurveto
          -450 -228 rmoveto
          -79 -37 76 88 hvcurveto
          hintmask 10110110
          89 35 76 80 88 32 -77 -89 vhcurveto
          hintmask 10101110
          -89 -37 -74 -82 vhcurveto
          hintmask 01101110
          532 44 rmoveto
          -24 -34 -46 -16 -54 hhcurveto
          -78 -62 39 74 -18 hvcurveto
          318 hlineto
          3 19 3 33 18 vvcurveto
          159 -82 78 -131 -64 -64 -27 -52 -44 vhcurveto
          hintmask 10110110
          50 -40 -61 32 -79 hhcurveto
          -150 -91 -116 -151 -143 82 -113 159 80 62 33 53 40 hvcurveto
          hintmask 01110110
          -52 46 69 -31 83 hhcurveto
          49 66 10 23 38 hvcurveto
          endchar
        </CharString>
        <CharString name="ogonek">
          -104 -240 81 hstem
          120 98 vstem
          350 -217 rmoveto
          191 callsubr
          47 57 47 59 34 hvcurveto
          -42 54 rlineto
          -62 -25 -110 -67 -101 vvcurveto
          -62 40 -52 92 39 32 8 15 27 vhcurveto
          endchar
        </CharString>
        <CharString name="ograve">
          165 callgsubr
          81 callgsubr
          -33 308 42 callgsubr
          endchar
        </CharString>
        <CharString name="ohungarumlaut">
          165 callgsubr
          342 556 31 callsubr
          25 -733 -83 callsubr
          endchar
        </CharString>
        <CharString name="omacron">
          223 callgsubr
          84 83 287 callgsubr
          448 599 292 callsubr
          162 -607 -83 callsubr
          endchar
        </CharString>
        <CharString name="one">
          -216 21 -21 hstem
          173 119 vstem
          13 427 rmoveto
          160 97 rlineto
          -524 119 654 -106 vlineto
          -173 -102 rlineto
          endchar
        </CharString>
        <CharString name="onesuperior">
          -306 392 432 hstem
          122 88 vstem
          10 666 rmoveto
          112 61 rlineto
          -335 88 432 -72 vlineto
          -128 -73 rlineto
          endchar
        </CharString>
        <CharString name="ordfeminine">
          -193 389 75 112 68 98 85 hstem
          7 106 135 103 vstem
          248 576 rmoveto
          -43 vlineto
          -39 -29 -30 -43 -43 -20 21 32 36 30 23 55 vhcurveto
          -159 129 rmoveto
          21 32 48 16 46 hhcurveto
          63 20 -28 -45 hvcurveto
          -25 -63 vlineto
          -117 -61 -51 -80 -72 49 -52 84 59 35 26 30 18 hvcurveto
          -53 99 274 vlineto
          108 -54 53 -119 -59 -53 -14 -15 -27 vhcurveto
          endchar
        </CharString>
        <CharString name="ordmasculine">
          -157 386 82 279 82 hstem
          4 106 196 107 vstem
          209 386 rmoveto
          132 72 98 125 122 -69 98 -135 -127 -78 -98 -128 -121 70 -96 135 hvcurveto
          -2 361 rmoveto
          75 24 -66 -76 -75 -29 -62 -68 -66 -33 63 76 75 31 65 66 hvcurveto
          endchar
        </CharString>
        <CharString name="oslash">
          -12 -8 84 353 86 hstem
          43 112 265 112 vstem
          406 343 rmoveto
          10 -27 4 -32 -33 vvcurveto
          -96 -41 -79 -91 -25 -21 6 12 -18 vhcurveto
          -54 71 rmoveto
          -10 26 -5 30 31 vvcurveto
          96 43 81 89 25 22 -5 -10 17 vhcurveto
          181 101 rmoveto
          -107 hlineto
          -19 -26 rlineto
          17 -33 -40 9 -46 hhcurveto
          -149 -95 -116 -151 -69 20 -62 38 -46 hvcurveto
          -58 -79 rlineto
          106 hlineto
          19 26 rlineto
          -17 33 40 -9 46 hhcurveto
          159 86 115 148 70 -20 63 -38 47 hvcurveto
          endchar
        </CharString>
        <CharString name="otilde">
          223 callgsubr
          65 87 -49 87 -46 -20 hstemhm
          222 callsubr
          hintmask 11100110
          81 callgsubr
          127 293 115 callsubr
          hintmask 11010110
          -55 callsubr
          hintmask 11100110
          36 31 -38 56 hhcurveto
          hintmask 11001110
          55 43 30 49 24 hvcurveto
          endchar
        </CharString>
        <CharString name="p">
          126 callsubr
          411 rmoveto
          -120 -698 177 callsubr
        </CharString>
        <CharString name="paragraph">
          0 -148 822 hstem
          214 96 100.5 95.5 vstem
          310 674 rmoveto
          -83 hlineto
          -150 -61 -88 -86 -90 65 -84 133 hvcurveto
          -474 96 vlineto
          100 hmoveto
          96 822 -95 hlineto
          endchar
        </CharString>
        <CharString name="parenleft">
          -246 -196 903 hstem
          52 127 vstem
          344 -196 rmoveto
          -112 139 -53 175 138 vvcurveto
          143 52 176 104 132 vhcurveto
          -127 hlineto
          -98 -120 -58 -152 -175 vvcurveto
          -171 55 -151 107 -134 vhcurveto
          endchar
        </CharString>
        <CharString name="parenright">
          -246 -196 903 hstem
          148 128 vstem
          120 707 rmoveto
          -127 hlineto
          104 -132 51 -176 -143 vvcurveto
          -138 -53 -175 -111 -139 vhcurveto
          129 hlineto
          107 134 56 151 171 vvcurveto
          175 -59 152 -97 120 vhcurveto
          endchar
        </CharString>
        <CharString name="partialdiff">
          -36 -9 108 226 104 hstem
          37 123 218 112 vstem
          259 99 rmoveto
          -63 -36 47 65 70 44 44 59 50 36 -17 -31 29 hvcurveto
          -122 -3 -48 -56 -68 hhcurveto
          -143 575 rmoveto
          103 -63 103 -102 40 -120 rrcurveto
          25 -31 -40 15 -49 hhcurveto
          -108 -97 -82 -131 -124 75 -101 146 148 84 112 182 139 -90 165 -117 85 hvcurveto
          endchar
        </CharString>
        <CharString name="percent">
          351 393 callgsubr
          47 98 159 99 120 99 158 99 hintmask 0110111110000000
          219 339 callsubr
          hintmask 1010111110000000
          402 callgsubr
          98 -80 80 -98 vhcurveto
          hintmask 0110111110000000
          -99 -79 -80 -98 hvcurveto
          hintmask 1001111110000000
          -476 355 rmoveto
          402 callgsubr
          99 -80 79 -98 -99 -79 -79 -99 vhcurveto
          98 hmoveto
          44 36 311 callsubr
          -36 36 43 vhcurveto
          hintmask 1010111110000000
          477 -355 rmoveto
          44 35 311 callsubr
          -35 36 43 vhcurveto
          endchar
        </CharString>
        <CharString name="period">
          -351 -8 155 hstem
          34 155 vstem
          34 70 rmoveto
          60 callsubr
          endchar
        </CharString>
        <CharString name="periodcentered">
          -320 200 155 hstem
          50 155 vstem
          50 278 rmoveto
          60 callsubr
          endchar
        </CharString>
        <CharString name="perthousand">
          762 393 callgsubr
          45 99 158 99 120 99 159 98 65 99 158 99 hintmask 0110000100000000
          217 339 callsubr
          hintmask 1010000110000000
          -98 80 -80 98 98 80 80 98 98 -80 80 -98 vhcurveto
          hintmask 0110000100000000
          -98 -80 -80 -98 hvcurveto
          hintmask 0001111000000000
          -476 355 144 callgsubr
          hintmask 1010000111100000
          476 -355 rmoveto
          44 36 36 43 44 36 -36 -44 -43 -36 -36 -44 -43 -36 36 43 vhcurveto
          322 hmoveto
          402 callgsubr
          98 -80 80 -98 -99 -79 -80 -98 vhcurveto
          99 hmoveto
          44 35 311 callsubr
          -35 36 43 vhcurveto
          endchar
        </CharString>
        <CharString name="pi">
          23 0 100 317 90 hstem
          108 120 150 120 vstem
          584 507 rmoveto
          -562 -90 86 -231 hlineto
          -71 -20 -15 -48 vhcurveto
          -100 vlineto
          124 64 45 152 hvcurveto
          220 150 -417 120 417 86 vlineto
          endchar
        </CharString>
        <CharString name="plus">
          2 285 108 hstem
          231 111 vstem
          526 393 rmoveto
          -184 185 -111 -185 -181 -108 181 -183 111 183 184 hlineto
          endchar
        </CharString>
        <CharString name="plusminus">
          2 29 101 198 101 hstem
          231 111 vstem
          50 29 rmoveto
          476 101 -476 hlineto
          292 299 rmoveto
          150 -111 -150 -181 -101 181 -151 111 151 184 101 vlineto
          endchar
        </CharString>
        <CharString name="product">
          53 -185 110 640 109 hstem
          90 127 215 127 vstem
          559 674 rmoveto
          -469 -653 hlineto
          -65 -18 -31 -47 -19 -15 5 8 -15 vhcurveto
          -111 vlineto
          -6 16 31 -6 22 hhcurveto
          119 53 79 131 hvcurveto
          540 215 -745 127 vlineto
          endchar
        </CharString>
        <CharString name="q">
          20 -7 103 316 102 hstem
          443 callsubr
          vstem
          285 96 rmoveto
          -68 -56 57 101 100 55 58 66 61 66 -44 -111 -109 -61 -52 -63 hvcurveto
          124 411 rmoveto
          -78 vlineto
          54 -34 -52 31 -67 hhcurveto
          -133 -85 -105 -153 -148 81 -115 137 63 55 28 57 35 hvcurveto
          -269 120 698 vlineto
          endchar
        </CharString>
        <CharString name="question">
          -118 -8 158 74 157 198 103 hstemhm
          109 158 -134.5 113.5 54 123 hintmask 11110100
          58 534 rmoveto
          30 46 46 15 47 hhcurveto
          71 32 -39 -53 -70 -54 -36 -115 hvcurveto
          hintmask 11101100
          3 -157 rlineto
          111 hlineto
          2 92 rlineto
          66 4 110 53 126 vvcurveto
          115 -86 68 -124 -63 -54 -13 -20 -38 vhcurveto
          hintmask 11110100
          51 -578 299 callgsubr
        </CharString>
        <CharString name="questiondown">
          -118 -172 102 199 157 74 158 hstemhm
          58 122 33 158 -137 114 hintmask 11111000
          423 -24 rmoveto
          -30 -46 -47 -16 -47 hhcurveto
          -71 -32 40 53 70 54 36 115 hvcurveto
          hintmask 11110100
          -2 157 rlineto
          -112 hlineto
          -2 -92 rlineto
          -66 -4 -109 -53 -126 vvcurveto
          -116 85 -67 124 63 54 13 19 39 vhcurveto
          hintmask 11111000
          -52 579 rmoveto
          44 -34 35 -45 -44 -35 -35 -44 -44 35 -35 44 45 34 35 44 vhcurveto
          endchar
        </CharString>
        <CharString name="quotedbl">
          -222 429 252 hstem
          42 102 64 103 458 callgsubr
          166 -252 rmoveto
          103 252 -103 hlineto
          endchar
        </CharString>
        <CharString name="quotedblbase">
          -171 -126 247 hstem
          0 400 vstem
          169 -126 rmoveto
          98 hlineto
          133 247 rlineto
          -135 hlineto
          -265 355 callsubr
        </CharString>
        <CharString name="quotedblleft">
          -171 453 callgsubr
          21 401 vstem
          253 694 rmoveto
          -98 hlineto
          -134 -247 rlineto
          135 hlineto
          266 247 rmoveto
          -98 hlineto
          -120 -247 rlineto
          127 hlineto
          endchar
        </CharString>
        <CharString name="quotedblright">
          -171 453 callgsubr
          22 401 vstem
          191 447 rmoveto
          98 hlineto
          134 247 rlineto
          -135 hlineto
          -266 355 callsubr
        </CharString>
        <CharString name="quoteleft">
          -340 453 callgsubr
          21 231 vstem
          252 694 rmoveto
          -101 hlineto
          -130 -247 rlineto
          137 hlineto
          endchar
        </CharString>
        <CharString name="quoteright">
          -340 453 callgsubr
          22 231 vstem
          22 447 rmoveto
          102 hlineto
          129 421 callsubr
        </CharString>
        <CharString name="quotesinglbase">
          -340 -126 247 hstem
          -4 232 vstem
          -4 -126 rmoveto
          102 hlineto
          130 421 callsubr
        </CharString>
        <CharString name="quotesingle">
          -388 429 252 hstem
          42 102 458 callgsubr
          endchar
        </CharString>
        <CharString name="r">
          -221 21 -21 402 109 418 callsubr
          185 507 -16 callsubr
        </CharString>
        <CharString name="racute">
          254 callgsubr
          380 725 45 callsubr
          -79 -49 -16 callsubr
        </CharString>
        <CharString name="radical">
          224 350 96 457 -20 hstem
          29 815 vstem
          259 446 rmoveto
          -206 hlineto
          -24 -96 rlineto
          128 hlineto
          197 -543 rlineto
          148 hlineto
          342 1096 rlineto
          -127 hlineto
          -23 -76 -174 -568 -24 -77 -47 -153 -19 -107 -1 -3 -1 7 -27 107 -51 147 rrcurveto
          endchar
        </CharString>
        <CharString name="rcaron">
          254 callgsubr
          261 556 -81 callgsubr
          30 -49 -16 callsubr
        </CharString>
        <CharString name="registered">
          -98 333 54 149 41 62 42 52 54 hstem
          10 57 101 50 52 52 88 56 vstem
          218 639 rmoveto
          20 hlineto
          21 11 -8 -22 -18 -9 -14 -19 hvcurveto
          -24 hlineto
          -50 104 rmoveto
          -228 50 83 15 vlineto
          49 -83 rlineto
          61 hlineto
          -58 92 rlineto
          25 12 12 22 30 vvcurveto
          44 -26 28 -61 vhcurveto
          4 -294 rmoveto
          -105 -67 70 102 103 67 71 105 104 67 -71 -103 -102 -67 -70 -104 hvcurveto
          -1 400 rmoveto
          -132 -96 -95 -133 -132 96 -94 132 131 97 94 132 133 -97 95 -131 hvcurveto
          endchar
        </CharString>
        <CharString name="ring">
          -104 589 72 110 68 hstem
          110 72 106 72 vstem
          110 714 140 callgsubr
          endchar
        </CharString>
        <CharString name="s">
          361 callgsubr
          263 callgsubr
          368 491 33 callgsubr
        </CharString>
        <CharString name="sacute">
          361 callgsubr
          43 169 263 callgsubr
          184 556 -37 callgsubr
          93 -234 33 callgsubr
        </CharString>
        <CharString name="scaron">
          361 callgsubr
          43 169 263 callgsubr
          368 491 -86 callgsubr
          -79 171 -81 callgsubr
          endchar
        </CharString>
        <CharString name="scircumflex">
          361 callgsubr
          43 169 263 callgsubr
          368 491 -86 callgsubr
          -187 340 -81 callsubr
          endchar
        </CharString>
        <CharString name="section">
          -8 -193 110 653 110 hstemhm
          55 122 -111 132 168 130 -114 121 hintmask 11100100
          177 294 rmoveto
          15 5 19 12 17 vhcurveto
          14 -7 15 -7 14 -7 rrcurveto
          86 -43 59 -20 -60 vvcurveto
          -17 -4 -15 -10 -15 vhcurveto
          -21 11 -22 9 -20 9 rrcurveto
          -83 36 -45 25 50 vvcurveto
          278 353 rmoveto
          23 -49 -61 10 -53 hhcurveto
          hintmask 11010100
          -137 -89 -67 -111 -38 13 -29 20 -24 hvcurveto
          hintmask 11101000
          -26 -30 -18 -39 -46 vvcurveto
          -99 64 -53 83 -37 vhcurveto
          136 -60 28 -17 -44 vvcurveto
          -45 -37 -24 -65 -64 -66 19 43 -58 vhcurveto
          -129 vlineto
          -29 49 72 -14 68 hhcurveto
          138 93 65 115 39 -13 32 -21 26 hvcurveto
          hintmask 11010100
          25 29 16 43 43 vvcurveto
          106 -66 44 -82 41 vhcurveto
          -102 52 -55 13 49 vvcurveto
          40 33 26 65 55 60 -18 -27 44 vhcurveto
          endchar
        </CharString>
        <CharString name="semicolon">
          -306 327 154 hstem
          72 154 vstem
          72 404 rmoveto
          -43 33 -34 43 43 35 34 43 42 -35 35 -43 -43 -33 -35 -42 vhcurveto
          -79 -530 396 callsubr
        </CharString>
        <CharString name="seven">
          -105 21 -21 551 104 hstem
          17 435 vstem
          17 655 rmoveto
          -104 308 vlineto
          -261 -551 rlineto
          128 hlineto
          260 551 rlineto
          104 vlineto
          endchar
        </CharString>
        <CharString name="six">
          -41 435 callgsubr
          42 123 215 124 vstem
          282 92 rmoveto
          -60 -49 48 123 -8 hvcurveto
          32 31 39 23 48 hhcurveto
          60 37 -42 -65 -71 -37 -48 -61 hvcurveto
          172 561 rmoveto
          9 -25 -36 7 -37 hhcurveto
          -187 -127 -150 -221 -183 77 -131 162 140 83 99 129 128 -76 82 -116 -56 -50 -22 -33 -36 hvcurveto
          107 18 64 86 112 hhcurveto
          34 29 -6 -14 27 hvcurveto
          endchar
        </CharString>
        <CharString name="slash">
          -133 -103 810 hstem
          -5 486 vstem
          -5 -103 rmoveto
          124 hlineto
          362 810 rlineto
          -125 hlineto
          endchar
        </CharString>
        <CharString name="space">
          -326 endchar
        </CharString>
        <CharString name="sterling">
          -41 0 103 174 89 180 114 hstemhm
          117 131 -114 129 hintmask 11101000
          195 103 rmoveto
          46 29 22 44 74 vvcurveto
          9 0 9 -1 9 vhcurveto
          162 89 hlineto
          hintmask 11110000
          -172 hlineto
          -2 22 -2 21 20 vvcurveto
          81 40 36 75 37 35 -11 -20 31 vhcurveto
          115 vlineto
          18 -31 -44 12 -51 hhcurveto
          -148 -75 -86 -143 -20 2 -22 3 -23 hvcurveto
          hintmask 11101000
          -70 -89 81 hlineto
          1 -9 0 -9 -9 vvcurveto
          -70 -17 -47 -66 -33 vhcurveto
          -100 447 103 vlineto
          endchar
        </CharString>
        <CharString name="summation">
          -106 -200 104 666 104 hstem
          30 458 vstem
          488 674 rmoveto
          -458 -104 hlineto
          159 -326 -159 -340 rlineto
          -104 458 104 -324 vlineto
          157 340 -156 326 rlineto
          323 hlineto
          endchar
        </CharString>
        <CharString name="t">
          -195 -5 99 323 90 hstem
          91 120 vstem
          211 417 10 callsubr
        </CharString>
        <CharString name="tbar">
          -167 -5 99 142 85 99 87 hstem
          105 120 vstem
          225 236 rmoveto
          127 85 -127 99 126 87 -126 122 -120 -122 -76 -87 76 -99 -76 -85 76 -75 35 callgsubr
          endchar
        </CharString>
        <CharString name="tcaron">
          -195 -5 99 323 90 73 49 hstem
          91 120 vstem
          211 417 16 callgsubr
          130 625 rmoveto
          -76 -204 rlineto
          91 hlineto
          114 204 rlineto
          endchar
        </CharString>
        <CharString name="thorn">
          126 callsubr
          611 rmoveto
          -120 -898 177 callsubr
        </CharString>
        <CharString name="three">
          -98 432 callsubr
          296 124 -108 123 hintmask 11101000
          57 512 rmoveto
          21 34 54 456 callgsubr
          -58 456 callsubr
          39 -36 -51 -51 -40 -40 -75 -63 -53 16 26 -48 hvcurveto
          -117 vlineto
          -21 45 69 -12 58 hhcurveto
          150 80 335 callgsubr
          -79 78 -141 -55 -55 -19 -18 -33 vhcurveto
          endchar
        </CharString>
        <CharString name="threesuperior">
          -231 388 78 105 76 101 80 hstemhm
          205 93 -83 93 hintmask 11101000
          107 647 rmoveto
          -76 18 vlineto
          67 23 -22 -30 -31 -25 -22 -43 -40 -37 11 18 -35 hvcurveto
          -81 vlineto
          -17 32 54 -9 38 hhcurveto
          94 55 50 71 61 -42 36 -48 4 hvcurveto
          hintmask 11110000
          49 11 31 35 53 vvcurveto
          67 -52 52 -95 -36 -38 -11 -16 -27 vhcurveto
          -86 vlineto
          20 28 37 13 30 hhcurveto
          36 24 -15 -34 -35 -35 -17 -45 hvcurveto
          endchar
        </CharString>
        <CharString name="tilde">
          -104 635 87 -49 87 hstemhm
          51 374 hintmask 10100000
          361 765 115 callsubr
          hintmask 01100000
          -55 callsubr
          hintmask 10100000
          61 callgsubr
          endchar
        </CharString>
        <CharString name="trademark">
          157 582 92 -71 71 hstemhm
          92 81 hintmask 01100000
          290 331 rmoveto
          80 hlineto
          9 128 rlineto
          5 73 -5 50 0 vvcurveto
          0 10 -49 27 -74 vhcurveto
          44 -123 rlineto
          72 hlineto
          46 123 rlineto
          hintmask 10100000
          29 76 10 47 0 vvcurveto
          0 -5 -49 6 -73 vhcurveto
          10 -129 rlineto
          80 hlineto
          -32 343 rlineto
          -91 hlineto
          -46 -119 rlineto
          -33 -89 -11 -38 0 vvcurveto
          0 -7 38 -35 89 vhcurveto
          hintmask 01100000
          -44 119 rlineto
          -91 hlineto
          -311 -71 rmoveto
          85 -272 81 272 84 71 -250 hlineto
          endchar
        </CharString>
        <CharString name="two">
          -76 0 103 447 112 hstem
          320 125 vstem
          199 103 rmoveto
          155 114 91 123 122 vvcurveto
          131 -93 69 -124 -66 -71 -24 -33 -43 vhcurveto
          -117 vlineto
          35 43 62 27 54 hhcurveto
          74 39 306 callsubr
        </CharString>
        <CharString name="twosuperior">
          -209 392 77 274 85 hstemhm
          40 289 -109 94 hintmask 10100000
          40 392 rmoveto
          289 77 -173 hlineto
          hintmask 11010000
          89 61 69 78 85 vvcurveto
          87 -65 48 -84 -43 -42 -15 -18 -29 vhcurveto
          -91 vlineto
          23 31 39 16 32 hhcurveto
          42 25 -21 -40 -70 -91 -88 -89 -66 hvcurveto
          endchar
        </CharString>
        <CharString name="u">
          293 callgsubr
          170 callgsubr
          hintmask 10110000
          379 507 rmoveto
          -272 vlineto
          -76 callgsubr
          hintmask 01110000
          149 callsubr
        </CharString>
        <CharString name="uacute">
          154 callsubr
          456 725 45 callsubr
          39 -49 rmoveto
          -272 vlineto
          -76 callgsubr
          hintmask 01111000
          149 callsubr
        </CharString>
        <CharString name="ubreve">
          293 callgsubr
          458 79 hstemhm
          60 120 -80 470 callsubr
          -91 121 hintmask 10101100
          376 725 rmoveto
          -57 -32 -37 -59 -59 -32 37 57 vhcurveto
          -94 hlineto
          -30 callsubr
          hintmask 10110010
          -91 -218 rmoveto
          -272 vlineto
          -76 callgsubr
          hintmask 01110010
          149 callsubr
        </CharString>
        <CharString name="ucircumflex">
          154 callsubr
          281 655 -44 callgsubr
          179 -49 rmoveto
          -272 vlineto
          -76 callgsubr
          hintmask 01111000
          149 callsubr
        </CharString>
        <CharString name="udieresis">
          293 callgsubr
          477 139 hstemhm
          60 120 -91 242 callgsubr
          -94 121 hintmask 10101100
          402 571 -38 callsubr
          hintmask 10110010
          219 -64 rmoveto
          -272 vlineto
          -76 callgsubr
          hintmask 01110010
          149 callsubr
        </CharString>
        <CharString name="ugrave">
          293 callgsubr
          461 169 170 callgsubr
          hintmask 10111000
          333 555 83 callsubr
          147 -48 rmoveto
          -272 vlineto
          -76 callgsubr
          hintmask 01111000
          149 callsubr
        </CharString>
        <CharString name="uhungarumlaut">
          154 callsubr
          420 556 rmoveto
          132 169 rlineto
          -126 hlineto
          -97 -169 rlineto
          32 169 rmoveto
          -117 hlineto
          -90 -169 rlineto
          90 hlineto
          135 -321 rmoveto
          -76 callgsubr
          hintmask 01111000
          -83 121 507 -121 vlineto
          endchar
        </CharString>
        <CharString name="umacron">
          293 callgsubr
          505 83 170 callgsubr
          hintmask 10111000
          443 682 316 callsubr
          -64 -92 rmoveto
          -272 vlineto
          -76 callgsubr
          hintmask 01111000
          149 callsubr
        </CharString>
        <CharString name="underscore">
          -22 -141 101 hstem
          23 506 vstem
          23 -141 rmoveto
          506 101 -506 hlineto
          endchar
        </CharString>
        <CharString name="uni00A0">
          -326 endchar
        </CharString>
        <CharString name="uni00AD">
          274 callgsubr
        </CharString>
        <CharString name="uni00B5">
          -4 -5 99 -94 94 hstemhm
          65 120 200 120 hintmask 10110000
          385 507 rmoveto
          -272 vlineto
          -98 -36 -43 -63 -54 -47 33 65 vhcurveto
          315 -120 -687 120 197 vlineto
          -14 25 29 -8 31 hhcurveto
          54 40 27 45 21 hvcurveto
          hintmask 01110000
          -67 120 507 vlineto
          endchar
        </CharString>
        <CharString name="uni0122">
          119 334 callsubr
          43 204 callgsubr
          108 176 117 315 callgsubr
          hintmask 11111010
          235 29 callsubr
          319 444 rmoveto
          hintmask 11111100
          -248 -108 hlineto
          hintmask 11111010
          9 callsubr
          hintmask 11111100
          -23 callgsubr
          hintmask 11111010
          127 callsubr
        </CharString>
</ttFont>
